<?xml version="1.0" encoding="iso-8859-1"?>
<!-- Uploaded to: SVG Repo, www.svgrepo.com, Generator: SVG Repo Mixer Tools -->
<svg version="1.1" id="Layer_1" xmlns="http://www.w3.org/2000/svg" xmlns:xlink="http://www.w3.org/1999/xlink" 
	 viewBox="0 0 512 512" xml:space="preserve">
<path style="fill:#41BBBE;" d="M465.966,144.879H46.034C20.715,144.879,0,165.594,0,190.913v268.02
	c0,25.319,20.715,46.034,46.034,46.034h419.932c25.319,0,46.034-20.715,46.034-46.034v-268.02
	C512,165.594,491.285,144.879,465.966,144.879z"/>
<rect x="67.516" y="178.637" style="fill:#D0EEEF;" width="343.209" height="292.571"/>
<g>
	<circle style="fill:#086063;" cx="33.758" cy="324.923" r="8.44"/>
	<circle style="fill:#086063;" cx="461.363" cy="324.923" r="16.879"/>
</g>
<g>
	<polygon style="fill:#E4769A;" points="101.275,282.725 149.099,414.945 149.099,282.725 	"/>
	<polygon style="fill:#E4769A;" points="329.143,414.945 376.967,282.725 329.143,282.725 	"/>
</g>
<rect x="149.099" y="282.725" style="fill:#DA5B82;" width="180.044" height="132.22"/>
<polygon style="fill:#EEA0B6;" points="149.099,234.901 101.275,7.033 101.275,282.725 149.099,282.725 "/>
<polygon style="fill:#F7C9D1;" points="329.143,234.901 376.967,7.033 101.275,7.033 149.099,234.901 "/>
<polygon style="fill:#EEA0B6;" points="329.143,234.901 329.143,282.725 376.967,282.725 376.967,7.033 "/>
<rect x="149.099" y="234.901" style="fill:#E4769A;" width="180.044" height="47.824"/>
</svg>