<?xml version="1.0" encoding="iso-8859-1"?>
<!-- Uploaded to: SVG Repo, www.svgrepo.com, Generator: SVG Repo Mixer Tools -->
<svg version="1.1" id="Layer_1" xmlns="http://www.w3.org/2000/svg" xmlns:xlink="http://www.w3.org/1999/xlink" 
	 viewBox="0 0 512 512" xml:space="preserve">
<path style="fill:#41BBBE;" d="M455.736,36.571H56.264c-12.378,0-22.505,10.127-22.505,22.505v281.319L256,362.901l222.242-22.505
	V59.077C478.242,46.699,468.114,36.571,455.736,36.571z"/>
<polygon style="fill:#A0DDDF;" points="478.242,340.396 33.758,340.396 0,407.912 512,407.912 "/>
<rect x="67.516" y="70.33" style="fill:#EEA0B6;" width="376.967" height="236.308"/>
<path style="fill:#FFFFFF;" d="M399.473,188.484c-28.639-49.508-82.164-82.819-143.473-82.819s-114.833,33.312-143.473,82.819
	c28.639,49.508,82.164,82.819,143.473,82.819S370.833,237.991,399.473,188.484z"/>
<circle style="fill:#41BBBE;" cx="256" cy="188.484" r="81.984"/>
<circle style="fill:#06484A;" cx="256" cy="188.484" r="43.886"/>
<path style="fill:#20AAB0;" d="M289.758,382.593h-67.516c-4.662,0-8.44-3.778-8.44-8.44s3.778-8.44,8.44-8.44h67.516
	c4.662,0,8.44,3.778,8.44,8.44S294.42,382.593,289.758,382.593z"/>
<path style="fill:#41BBBE;" d="M0,407.912v33.758c0,18.567,15.191,33.758,33.758,33.758h444.484
	c18.567,0,33.758-15.191,33.758-33.758v-33.758H0z"/>
<circle style="fill:#086063;" cx="256" cy="441.67" r="8.44"/>
</svg>