<svg width="32" height="32" viewBox="0 0 32 32" fill="none" xmlns="http://www.w3.org/2000/svg">
<g clip-path="url(#clip0_544_12295)">
<path d="M32.0004 12.5058H0.000488281V6.06904C0.000488281 5.76435 0.24755 5.51729 0.552237 5.51729H31.4487C31.7534 5.51729 32.0005 5.76435 32.0005 6.06904L32.0004 12.5058Z" fill="#73AF00"/>
<path d="M31.4487 26.4828H0.552237C0.24755 26.4828 0.000488281 26.2358 0.000488281 25.9311V19.4943H32.0004V25.9311C32.0004 26.2358 31.7534 26.4828 31.4487 26.4828Z" fill="#FF4B55"/>
<path d="M32.0009 12.5055H0.000976562V19.4936H32.0009V12.5055Z" fill="#F5F5F5"/>
<path d="M0.0873006 12.1362H0.0921131C0.140051 12.1362 0.178925 12.0974 0.178925 12.0494V11.8614C0.178925 11.8134 0.217738 11.7746 0.265738 11.7746H0.629925C0.677862 11.7746 0.716737 11.8134 0.716737 11.8614V12.0494C0.716737 12.0973 0.755549 12.1362 0.803549 12.1362H1.52242C1.57036 12.1362 1.60924 12.0974 1.60924 12.0494V11.6782C1.60924 11.6303 1.57042 11.5914 1.52242 11.5914H1.16055C1.11261 11.5914 1.07374 11.6302 1.07374 11.6782V11.6878C1.07374 11.7357 1.11255 11.7746 1.16055 11.7746H1.34399C1.39192 11.7746 1.4308 11.8134 1.4308 11.8614V11.8708C1.4308 11.9187 1.39199 11.9576 1.34399 11.9576H0.981987C0.934049 11.9576 0.895174 11.9188 0.895174 11.8708V11.6782C0.895174 11.6303 0.856362 11.5914 0.808362 11.5914H0.0873006C0.0393632 11.5914 0.000488281 11.6302 0.000488281 11.6782V12.0494C0.000488281 12.0972 0.0393007 12.1362 0.0873006 12.1362ZM0.44655 12.1362H0.451487C0.499425 12.1362 0.5383 12.0974 0.5383 12.0494V12.0444C0.5383 11.9965 0.499487 11.9576 0.451487 11.9576H0.44655C0.398613 11.9576 0.359738 11.9964 0.359738 12.0444V12.0494C0.359738 12.0972 0.398613 12.1362 0.44655 12.1362ZM0.0873006 11.4084H2.23873C2.28667 11.4084 2.32555 11.3696 2.32555 11.3216V11.3121C2.32555 11.2641 2.28673 11.2253 2.23873 11.2253H0.0873006C0.0393632 11.2253 0.000488281 11.2641 0.000488281 11.3121V11.3216C0.000488281 11.3696 0.0393007 11.4084 0.0873006 11.4084ZM2.23867 12.1362H1.8768C1.82886 12.1362 1.78998 12.0974 1.78998 12.0494V11.6782C1.78998 11.6303 1.8288 11.5914 1.8768 11.5914H2.4173C2.46523 11.5914 2.50411 11.5526 2.50411 11.5046V11.3121C2.50411 11.2641 2.54292 11.2253 2.59092 11.2253H2.59573C2.64367 11.2253 2.68255 11.2641 2.68255 11.3121V11.8708C2.68255 11.9187 2.72136 11.9576 2.76936 11.9576H2.7743C2.82223 11.9576 2.86111 11.9188 2.86111 11.8708V11.3121C2.86111 11.2641 2.89992 11.2253 2.94792 11.2253H2.95273C3.00067 11.2253 3.03955 11.2641 3.03955 11.3121V11.8708C3.03955 11.9187 3.07836 11.9576 3.12636 11.9576H3.13355C3.18148 11.9576 3.22036 11.9188 3.22036 11.8708V11.3121C3.22036 11.2641 3.25917 11.2253 3.30717 11.2253H3.30979C3.35773 11.2253 3.39661 11.2641 3.39661 11.3121V12.0494C3.39661 12.0973 3.35779 12.1362 3.30979 12.1362H2.59092C2.54298 12.1362 2.50411 12.0974 2.50411 12.0494V11.8614C2.50411 11.8134 2.4653 11.7746 2.4173 11.7746H2.05542C2.00748 11.7746 1.96861 11.8134 1.96861 11.8614V11.8708C1.96861 11.9187 2.00742 11.9576 2.05542 11.9576H2.23873C2.28667 11.9576 2.32555 11.9964 2.32555 12.0444V12.0494C2.32555 12.0972 2.28661 12.1362 2.23867 12.1362Z" fill="#F5F5F5"/>
<path d="M3.66469 12.136H3.67188C3.71982 12.136 3.75869 12.0972 3.75869 12.0492V11.8612C3.75869 11.8132 3.79751 11.7743 3.84551 11.7743H4.20513C4.25307 11.7743 4.29194 11.8132 4.29194 11.8612V12.0492C4.29194 12.0971 4.33075 12.136 4.37875 12.136H5.09763C5.14557 12.136 5.18444 12.0972 5.18444 12.0492V11.678C5.18444 11.6301 5.14563 11.5912 5.09763 11.5912H4.73575C4.68782 11.5912 4.64894 11.63 4.64894 11.678V11.6875C4.64894 11.7355 4.68775 11.7743 4.73575 11.7743H4.91919C4.96713 11.7743 5.006 11.8132 5.006 11.8612V11.8706C5.006 11.9185 4.96719 11.9574 4.91919 11.9574H4.55732C4.50938 11.9574 4.4705 11.9186 4.4705 11.8706V11.678C4.4705 11.6301 4.43169 11.5912 4.38369 11.5912H3.66469C3.61676 11.5912 3.57788 11.63 3.57788 11.678V12.0492C3.57794 12.097 3.61682 12.136 3.66469 12.136ZM4.02176 12.136H4.02657C4.0745 12.136 4.11338 12.0972 4.11338 12.0492V12.0442C4.11338 11.9963 4.07457 11.9574 4.02657 11.9574H4.02176C3.97382 11.9574 3.93494 11.9962 3.93494 12.0442V12.0492C3.93501 12.097 3.97382 12.136 4.02176 12.136ZM3.66469 11.4082H5.81394C5.86188 11.4082 5.90075 11.3693 5.90075 11.3213V11.3118C5.90075 11.2639 5.86194 11.225 5.81394 11.225H3.66469C3.61676 11.225 3.57788 11.2638 3.57788 11.3118V11.3213C3.57794 11.3693 3.61682 11.4082 3.66469 11.4082ZM5.81394 12.136H5.44975C5.40181 12.136 5.36294 12.0972 5.36294 12.0492V11.678C5.36294 11.6301 5.40175 11.5912 5.44975 11.5912H5.99025C6.03819 11.5912 6.07706 11.5524 6.07706 11.5044V11.3118C6.07706 11.2639 6.11588 11.225 6.16388 11.225H6.17106C6.219 11.225 6.25788 11.2638 6.25788 11.3118V11.8706C6.25788 11.9185 6.29669 11.9574 6.34469 11.9574H6.35188C6.39981 11.9574 6.43869 11.9186 6.43869 11.8706V11.3118C6.43869 11.2639 6.4775 11.225 6.5255 11.225H6.52813C6.57606 11.225 6.61494 11.2638 6.61494 11.3118V11.8706C6.61494 11.9185 6.65375 11.9574 6.70175 11.9574H6.70894C6.75687 11.9574 6.79575 11.9186 6.79575 11.8706V11.3118C6.79575 11.2639 6.83456 11.225 6.88256 11.225H6.88737C6.93531 11.225 6.97419 11.2638 6.97419 11.3118V12.0492C6.97419 12.0971 6.93537 12.136 6.88737 12.136H6.164C6.11606 12.136 6.07719 12.0972 6.07719 12.0492V11.8612C6.07719 11.8132 6.03838 11.7743 5.99038 11.7743H5.63075C5.58281 11.7743 5.54394 11.8132 5.54394 11.8612V11.8706C5.54394 11.9185 5.58275 11.9574 5.63075 11.9574H5.81419C5.86213 11.9574 5.901 11.9962 5.901 12.0442V12.0492C5.90069 12.097 5.86188 12.136 5.81394 12.136Z" fill="#F5F5F5"/>
<path d="M7.2394 12.136H7.24421C7.29215 12.136 7.33102 12.0972 7.33102 12.0492V11.8612C7.33102 11.8132 7.36984 11.7743 7.41784 11.7743H7.77984C7.82777 11.7743 7.86665 11.8132 7.86665 11.8612V12.0492C7.86665 12.0971 7.90546 12.136 7.95346 12.136H8.67458C8.72252 12.136 8.7614 12.0972 8.7614 12.0492V11.678C8.7614 11.6301 8.72258 11.5912 8.67458 11.5912H8.31271C8.26477 11.5912 8.2259 11.63 8.2259 11.678V11.6875C8.2259 11.7355 8.26471 11.7743 8.31271 11.7743H8.49615C8.54408 11.7743 8.58296 11.8132 8.58296 11.8612V11.8706C8.58296 11.9185 8.54415 11.9574 8.49615 11.9574H8.13196C8.08402 11.9574 8.04515 11.9186 8.04515 11.8706V11.678C8.04515 11.6301 8.00634 11.5912 7.95834 11.5912H7.23946C7.19153 11.5912 7.15265 11.63 7.15265 11.678V12.0492C7.15253 12.097 7.19146 12.136 7.2394 12.136ZM7.5964 12.136H7.60121C7.64915 12.136 7.68802 12.0972 7.68802 12.0492V12.0442C7.68802 11.9963 7.64921 11.9574 7.60121 11.9574H7.5964C7.54846 11.9574 7.50959 11.9962 7.50959 12.0442V12.0492C7.50959 12.097 7.54846 12.136 7.5964 12.136ZM7.2394 11.4082H9.3909C9.43883 11.4082 9.47771 11.3693 9.47771 11.3213V11.3118C9.47771 11.2639 9.4389 11.225 9.3909 11.225H7.2394C7.19146 11.225 7.15259 11.2638 7.15259 11.3118V11.3213C7.15253 11.3693 7.19146 11.4082 7.2394 11.4082ZM9.3909 12.136H9.02671C8.97877 12.136 8.9399 12.0972 8.9399 12.0492V11.678C8.9399 11.6301 8.97871 11.5912 9.02671 11.5912H9.56708C9.61502 11.5912 9.65389 11.5524 9.65389 11.5044V11.3118C9.65389 11.2639 9.69271 11.225 9.74071 11.225H9.74564C9.79358 11.225 9.83246 11.2638 9.83246 11.3118V11.8706C9.83246 11.9185 9.87127 11.9574 9.91927 11.9574H9.92646C9.97439 11.9574 10.0133 11.9186 10.0133 11.8706V11.3118C10.0133 11.2639 10.0521 11.225 10.1001 11.225H10.1073C10.1552 11.225 10.1941 11.2638 10.1941 11.3118V11.8706C10.1941 11.9185 10.2329 11.9574 10.2809 11.9574H10.2835C10.3315 11.9574 10.3703 11.9186 10.3703 11.8706V11.3118C10.3703 11.2639 10.4091 11.225 10.4571 11.225H10.462C10.5099 11.225 10.5488 11.2638 10.5488 11.3118V12.0492C10.5488 12.0971 10.51 12.136 10.462 12.136H9.74071C9.69277 12.136 9.65389 12.0972 9.65389 12.0492V11.8612C9.65389 11.8132 9.61508 11.7743 9.56708 11.7743H9.20521C9.15727 11.7743 9.1184 11.8132 9.1184 11.8612V11.8706C9.1184 11.9185 9.15721 11.9574 9.20521 11.9574H9.39102C9.43896 11.9574 9.47783 11.9962 9.47783 12.0442V12.0492C9.47771 12.097 9.43883 12.136 9.3909 12.136Z" fill="#F5F5F5"/>
<path d="M10.8141 12.136H10.8189C10.8669 12.136 10.9057 12.0972 10.9057 12.0492V11.8612C10.9057 11.8132 10.9445 11.7743 10.9925 11.7743H11.3544C11.4024 11.7743 11.4412 11.8132 11.4412 11.8612V12.0492C11.4412 12.0971 11.48 12.136 11.528 12.136H12.2493C12.2972 12.136 12.3361 12.0972 12.3361 12.0492V11.678C12.3361 11.6301 12.2973 11.5912 12.2493 11.5912H11.8851C11.8372 11.5912 11.7983 11.63 11.7983 11.678V11.6875C11.7983 11.7355 11.8371 11.7743 11.8851 11.7743H12.0685C12.1165 11.7743 12.1554 11.8132 12.1554 11.8612V11.8706C12.1554 11.9185 12.1165 11.9574 12.0685 11.9574H11.7067C11.6587 11.9574 11.6199 11.9186 11.6199 11.8706V11.678C11.6199 11.6301 11.581 11.5912 11.533 11.5912H10.8142C10.7662 11.5912 10.7274 11.63 10.7274 11.678V12.0492C10.7274 12.097 10.7662 12.136 10.8141 12.136ZM11.1712 12.136H11.176C11.2239 12.136 11.2628 12.0972 11.2628 12.0492V12.0442C11.2628 11.9963 11.224 11.9574 11.176 11.9574H11.1712C11.1232 11.9574 11.0844 11.9962 11.0844 12.0442V12.0492C11.0844 12.097 11.1232 12.136 11.1712 12.136ZM10.8141 11.4082H12.9634C13.0113 11.4082 13.0502 11.3693 13.0502 11.3213V11.3118C13.0502 11.2639 13.0114 11.225 12.9634 11.225H10.8141C10.7662 11.225 10.7273 11.2638 10.7273 11.3118V11.3213C10.7274 11.3693 10.7662 11.4082 10.8141 11.4082ZM12.9634 12.136H12.5992C12.5512 12.136 12.5124 12.0972 12.5124 12.0492V11.678C12.5124 11.6301 12.5512 11.5912 12.5992 11.5912H13.1442C13.1922 11.5912 13.231 11.5524 13.231 11.5044V11.3118C13.231 11.2639 13.2699 11.225 13.3179 11.225H13.3227C13.3706 11.225 13.4095 11.2638 13.4095 11.3118V11.8706C13.4095 11.9185 13.4483 11.9574 13.4963 11.9574H13.4989C13.5469 11.9574 13.5857 11.9186 13.5857 11.8706V11.3118C13.5857 11.2639 13.6245 11.225 13.6725 11.225H13.6797C13.7277 11.225 13.7665 11.2638 13.7665 11.3118V11.8706C13.7665 11.9185 13.8054 11.9574 13.8534 11.9574H13.8583C13.9062 11.9574 13.9451 11.9186 13.9451 11.8706V11.3118C13.9451 11.2639 13.9839 11.225 14.0319 11.225H14.0367C14.0847 11.225 14.1235 11.2638 14.1235 11.3118V12.0492C14.1235 12.0971 14.0847 12.136 14.0367 12.136H13.3175C13.2696 12.136 13.2307 12.0972 13.2307 12.0492V11.8612C13.2307 11.8132 13.1919 11.7743 13.1439 11.7743H12.7797C12.7318 11.7743 12.6929 11.8132 12.6929 11.8612V11.8706C12.6929 11.9185 12.7317 11.9574 12.7797 11.9574H12.9632C13.0111 11.9574 13.05 11.9962 13.05 12.0442V12.0492C13.0501 12.097 13.0113 12.136 12.9634 12.136Z" fill="#F5F5F5"/>
<path d="M14.3886 12.136H14.3935C14.4414 12.136 14.4803 12.0972 14.4803 12.0492V11.8612C14.4803 11.8132 14.5191 11.7743 14.5671 11.7743H14.929C14.9769 11.7743 15.0158 11.8132 15.0158 11.8612V12.0492C15.0158 12.0971 15.0546 12.136 15.1026 12.136H15.8239C15.8718 12.136 15.9107 12.0972 15.9107 12.0492V11.678C15.9107 11.6301 15.8719 11.5912 15.8239 11.5912H15.4597C15.4118 11.5912 15.3729 11.63 15.3729 11.678V11.6875C15.3729 11.7355 15.4117 11.7743 15.4597 11.7743H15.6453C15.6933 11.7743 15.7321 11.8132 15.7321 11.8612V11.8706C15.7321 11.9185 15.6933 11.9574 15.6453 11.9574H15.2834C15.2355 11.9574 15.1966 11.9186 15.1966 11.8706V11.678C15.1966 11.6301 15.1578 11.5912 15.1098 11.5912H14.3886C14.3406 11.5912 14.3018 11.63 14.3018 11.678V12.0492C14.3018 12.097 14.3406 12.136 14.3886 12.136ZM14.7479 12.136H14.7506C14.7985 12.136 14.8374 12.0972 14.8374 12.0492V12.0442C14.8374 11.9963 14.7986 11.9574 14.7506 11.9574H14.7479C14.7 11.9574 14.6611 11.9962 14.6611 12.0442V12.0492C14.6611 12.097 14.7 12.136 14.7479 12.136ZM14.3886 11.4082H16.5401C16.5881 11.4082 16.6269 11.3693 16.6269 11.3213V11.3118C16.6269 11.2639 16.5881 11.225 16.5401 11.225H14.3886C14.3406 11.225 14.3018 11.2638 14.3018 11.3118V11.3213C14.3018 11.3693 14.3406 11.4082 14.3886 11.4082ZM16.5402 12.136H16.176C16.1281 12.136 16.0892 12.0972 16.0892 12.0492V11.678C16.0892 11.6301 16.128 11.5912 16.176 11.5912H16.7188C16.7667 11.5912 16.8056 11.5524 16.8056 11.5044V11.3118C16.8056 11.2639 16.8444 11.225 16.8924 11.225H16.8972C16.9451 11.225 16.984 11.2638 16.984 11.3118V11.8706C16.984 11.9185 17.0228 11.9574 17.0708 11.9574H17.0758C17.1237 11.9574 17.1626 11.9186 17.1626 11.8706V11.3118C17.1626 11.2639 17.2014 11.225 17.2494 11.225H17.2542C17.3021 11.225 17.341 11.2638 17.341 11.3118V11.8706C17.341 11.9185 17.3798 11.9574 17.4278 11.9574H17.4326C17.4806 11.9574 17.5194 11.9186 17.5194 11.8706V11.3118C17.5194 11.2639 17.5583 11.225 17.6063 11.225H17.6112C17.6591 11.225 17.698 11.2638 17.698 11.3118V12.0492C17.698 12.0971 17.6592 12.136 17.6112 12.136H16.8923C16.8444 12.136 16.8055 12.0972 16.8055 12.0492V11.8612C16.8055 11.8132 16.7667 11.7743 16.7187 11.7743H16.3545C16.3066 11.7743 16.2677 11.8132 16.2677 11.8612V11.8706C16.2677 11.9185 16.3065 11.9574 16.3545 11.9574H16.5401C16.5881 11.9574 16.6269 11.9962 16.6269 12.0442V12.0492C16.6269 12.097 16.5881 12.136 16.5402 12.136Z" fill="#F5F5F5"/>
<path d="M17.963 12.136H17.968C18.0159 12.136 18.0548 12.0972 18.0548 12.0492V11.8612C18.0548 11.8132 18.0936 11.7743 18.1416 11.7743H18.5035C18.5514 11.7743 18.5903 11.8132 18.5903 11.8612V12.0492C18.5903 12.0971 18.6291 12.136 18.6771 12.136H19.3983C19.4463 12.136 19.4852 12.0972 19.4852 12.0492V11.678C19.4852 11.6301 19.4463 11.5912 19.3983 11.5912H19.0363C18.9884 11.5912 18.9495 11.63 18.9495 11.678V11.6875C18.9495 11.7355 18.9883 11.7743 19.0363 11.7743H19.2175C19.2655 11.7743 19.3043 11.8132 19.3043 11.8612V11.8706C19.3043 11.9185 19.2655 11.9574 19.2175 11.9574H18.8579C18.81 11.9574 18.7711 11.9186 18.7711 11.8706V11.678C18.7711 11.6301 18.7323 11.5912 18.6843 11.5912H17.963C17.9151 11.5912 17.8762 11.63 17.8762 11.678V12.0492C17.8762 12.097 17.9151 12.136 17.963 12.136ZM18.3223 12.136H18.325C18.3729 12.136 18.4118 12.0972 18.4118 12.0492V12.0442C18.4118 11.9963 18.373 11.9574 18.325 11.9574H18.3223C18.2744 11.9574 18.2355 11.9962 18.2355 12.0442V12.0492C18.2356 12.097 18.2744 12.136 18.3223 12.136ZM17.963 11.4082H20.1145C20.1625 11.4082 20.2013 11.3693 20.2013 11.3213V11.3118C20.2013 11.2639 20.1625 11.225 20.1145 11.225H17.963C17.9151 11.225 17.8762 11.2638 17.8762 11.3118V11.3213C17.8762 11.3693 17.9151 11.4082 17.963 11.4082ZM20.1146 12.136H19.7527C19.7048 12.136 19.6659 12.0972 19.6659 12.0492V11.678C19.6659 11.6301 19.7047 11.5912 19.7527 11.5912H20.2931C20.341 11.5912 20.3799 11.5524 20.3799 11.5044V11.3118C20.3799 11.2639 20.4187 11.225 20.4667 11.225H20.4717C20.5196 11.225 20.5585 11.2638 20.5585 11.3118V11.8706C20.5585 11.9185 20.5973 11.9574 20.6453 11.9574H20.6501C20.698 11.9574 20.7369 11.9186 20.7369 11.8706V11.3118C20.7369 11.2639 20.7757 11.225 20.8237 11.225H20.8287C20.8766 11.225 20.9155 11.2638 20.9155 11.3118V11.8706C20.9155 11.9185 20.9543 11.9574 21.0023 11.9574H21.0071C21.055 11.9574 21.0939 11.9186 21.0939 11.8706V11.3118C21.0939 11.2639 21.1327 11.225 21.1807 11.225H21.1857C21.2336 11.225 21.2725 11.2638 21.2725 11.3118V12.0492C21.2725 12.0971 21.2337 12.136 21.1857 12.136H20.4666C20.4187 12.136 20.3798 12.0972 20.3798 12.0492V11.8612C20.3798 11.8132 20.341 11.7743 20.293 11.7743H19.9288C19.8809 11.7743 19.842 11.8132 19.842 11.8612V11.8706C19.842 11.9185 19.8808 11.9574 19.9288 11.9574H20.1145C20.1624 11.9574 20.2013 11.9962 20.2013 12.0442V12.0492C20.2014 12.097 20.1625 12.136 20.1146 12.136Z" fill="#F5F5F5"/>
<path d="M21.5375 12.136H21.5424C21.5904 12.136 21.6292 12.0972 21.6292 12.0492V11.8612C21.6292 11.8132 21.6681 11.7743 21.7161 11.7743H22.0802C22.1281 11.7743 22.167 11.8132 22.167 11.8612V12.0492C22.167 12.0971 22.2058 12.136 22.2538 12.136H22.9729C23.0208 12.136 23.0597 12.0972 23.0597 12.0492V11.678C23.0597 11.6301 23.0209 11.5912 22.9729 11.5912H22.6109C22.5629 11.5912 22.5241 11.63 22.5241 11.678V11.6875C22.5241 11.7355 22.5629 11.7743 22.6109 11.7743H22.7967C22.8446 11.7743 22.8835 11.8132 22.8835 11.8612V11.8706C22.8835 11.9185 22.8447 11.9574 22.7967 11.9574H22.4301C22.3822 11.9574 22.3433 11.9186 22.3433 11.8706V11.678C22.3433 11.6301 22.3045 11.5912 22.2565 11.5912H21.5376C21.4897 11.5912 21.4508 11.63 21.4508 11.678V12.0492C21.4507 12.097 21.4896 12.136 21.5375 12.136ZM21.8946 12.136H21.9017C21.9497 12.136 21.9886 12.0972 21.9886 12.0492V12.0442C21.9886 11.9963 21.9497 11.9574 21.9017 11.9574H21.8946C21.8466 11.9574 21.8077 11.9962 21.8077 12.0442V12.0492C21.8077 12.097 21.8466 12.136 21.8946 12.136ZM21.5375 11.4082H23.689C23.7369 11.4082 23.7758 11.3693 23.7758 11.3213V11.3118C23.7758 11.2639 23.737 11.225 23.689 11.225H21.5375C21.4896 11.225 21.4507 11.2638 21.4507 11.3118V11.3213C21.4507 11.3693 21.4896 11.4082 21.5375 11.4082ZM23.6891 12.136H23.3272C23.2793 12.136 23.2404 12.0972 23.2404 12.0492V11.678C23.2404 11.6301 23.2792 11.5912 23.3272 11.5912H23.8676C23.9155 11.5912 23.9544 11.5524 23.9544 11.5044V11.3118C23.9544 11.2639 23.9932 11.225 24.0412 11.225H24.0462C24.0941 11.225 24.133 11.2638 24.133 11.3118V11.8706C24.133 11.9185 24.1718 11.9574 24.2198 11.9574H24.2246C24.2725 11.9574 24.3114 11.9186 24.3114 11.8706V11.3118C24.3114 11.2639 24.3502 11.225 24.3982 11.225H24.4032C24.4511 11.225 24.49 11.2638 24.49 11.3118V11.8706C24.49 11.9185 24.5288 11.9574 24.5768 11.9574H24.584C24.6319 11.9574 24.6708 11.9186 24.6708 11.8706V11.3118C24.6708 11.2639 24.7096 11.225 24.7576 11.225H24.7601C24.808 11.225 24.8469 11.2638 24.8469 11.3118V12.0492C24.8469 12.0971 24.8081 12.136 24.7601 12.136H24.0412C23.9933 12.136 23.9544 12.0972 23.9544 12.0492V11.8612C23.9544 11.8132 23.9156 11.7743 23.8676 11.7743H23.508C23.4601 11.7743 23.4212 11.8132 23.4212 11.8612V11.8706C23.4212 11.9185 23.46 11.9574 23.508 11.9574H23.6892C23.7371 11.9574 23.776 11.9962 23.776 12.0442V12.0492C23.7759 12.097 23.7371 12.136 23.6891 12.136Z" fill="#F5F5F5"/>
<path d="M25.1146 12.136H25.1173C25.1652 12.136 25.2041 12.0972 25.2041 12.0492V11.8612C25.2041 11.8132 25.2429 11.7743 25.2909 11.7743H25.6529C25.7008 11.7743 25.7397 11.8132 25.7397 11.8612V12.0492C25.7397 12.0971 25.7785 12.136 25.8265 12.136H26.5476C26.5956 12.136 26.6345 12.0972 26.6345 12.0492V11.678C26.6345 11.6301 26.5956 11.5912 26.5476 11.5912H26.1881C26.1402 11.5912 26.1013 11.63 26.1013 11.678V11.6875C26.1013 11.7355 26.1401 11.7743 26.1881 11.7743H26.3715C26.4194 11.7743 26.4583 11.8132 26.4583 11.8612V11.8706C26.4583 11.9185 26.4195 11.9574 26.3715 11.9574H26.0073C25.9594 11.9574 25.9205 11.9186 25.9205 11.8706V11.678C25.9205 11.6301 25.8817 11.5912 25.8337 11.5912H25.1146C25.0667 11.5912 25.0278 11.63 25.0278 11.678V12.0492C25.0278 12.097 25.0667 12.136 25.1146 12.136ZM25.4716 12.136H25.4766C25.5245 12.136 25.5634 12.0972 25.5634 12.0492V12.0442C25.5634 11.9963 25.5246 11.9574 25.4766 11.9574H25.4716C25.4237 11.9574 25.3848 11.9962 25.3848 12.0442V12.0492C25.3848 12.097 25.4237 12.136 25.4716 12.136ZM25.1146 11.4082H27.2685C27.3165 11.4082 27.3553 11.3693 27.3553 11.3213V11.3118C27.3553 11.2639 27.3165 11.225 27.2685 11.225H25.1146C25.0667 11.225 25.0278 11.2638 25.0278 11.3118V11.3213C25.0278 11.3693 25.0667 11.4082 25.1146 11.4082ZM27.2685 12.136H26.9019C26.854 12.136 26.8151 12.0972 26.8151 12.0492V11.678C26.8151 11.6301 26.8539 11.5912 26.9019 11.5912H27.4424C27.4903 11.5912 27.5292 11.5524 27.5292 11.5044V11.3118C27.5292 11.2639 27.568 11.225 27.616 11.225H27.6232C27.6711 11.225 27.71 11.2638 27.71 11.3118V11.8706C27.71 11.9185 27.7488 11.9574 27.7968 11.9574H27.8016C27.8496 11.9574 27.8885 11.9186 27.8885 11.8706V11.3118C27.8885 11.2639 27.9273 11.225 27.9753 11.225H27.9779C28.0258 11.225 28.0647 11.2638 28.0647 11.3118V11.8706C28.0647 11.9185 28.1035 11.9574 28.1515 11.9574H28.1587C28.2066 11.9574 28.2455 11.9186 28.2455 11.8706V11.3118C28.2455 11.2639 28.2843 11.225 28.3323 11.225H28.3373C28.3852 11.225 28.4241 11.2638 28.4241 11.3118V12.0492C28.4241 12.0971 28.3853 12.136 28.3373 12.136H27.616C27.5681 12.136 27.5292 12.0972 27.5292 12.0492V11.8612C27.5292 11.8132 27.4904 11.7743 27.4424 11.7743H27.0805C27.0326 11.7743 26.9937 11.8132 26.9937 11.8612V11.8706C26.9937 11.9185 27.0325 11.9574 27.0805 11.9574H27.2685C27.3165 11.9574 27.3553 11.9962 27.3553 12.0442V12.0492C27.3553 12.097 27.3164 12.136 27.2685 12.136Z" fill="#F5F5F5"/>
<path d="M28.6894 12.136H28.6943C28.7422 12.136 28.7811 12.0972 28.7811 12.0492V11.8612C28.7811 11.8132 28.8199 11.7743 28.8679 11.7743H29.2298C29.2777 11.7743 29.3166 11.8132 29.3166 11.8612V12.0492C29.3166 12.0971 29.3554 12.136 29.4034 12.136H30.1247C30.1726 12.136 30.2115 12.0972 30.2115 12.0492V11.678C30.2115 11.6301 30.1727 11.5912 30.1247 11.5912H29.765C29.7171 11.5912 29.6782 11.63 29.6782 11.678V11.6875C29.6782 11.7355 29.717 11.7743 29.765 11.7743H29.9485C29.9964 11.7743 30.0353 11.8132 30.0353 11.8612V11.8706C30.0353 11.9185 29.9965 11.9574 29.9485 11.9574H29.5819C29.534 11.9574 29.4951 11.9186 29.4951 11.8706V11.678C29.4951 11.6301 29.4563 11.5912 29.4083 11.5912H28.6894C28.6415 11.5912 28.6026 11.63 28.6026 11.678V12.0492C28.6026 12.097 28.6415 12.136 28.6894 12.136ZM29.0464 12.136H29.0514C29.0993 12.136 29.1382 12.0972 29.1382 12.0492V12.0442C29.1382 11.9963 29.0994 11.9574 29.0514 11.9574H29.0464C28.9985 11.9574 28.9596 11.9962 28.9596 12.0442V12.0492C28.9597 12.097 28.9985 12.136 29.0464 12.136ZM28.6894 11.4082H30.8386C30.8865 11.4082 30.9254 11.3693 30.9254 11.3213V11.3118C30.9254 11.2639 30.8866 11.225 30.8386 11.225H28.6894C28.6414 11.225 28.6025 11.2638 28.6025 11.3118V11.3213C28.6026 11.3693 28.6415 11.4082 28.6894 11.4082ZM30.8386 12.136H30.4767C30.4288 12.136 30.3899 12.0972 30.3899 12.0492V11.678C30.3899 11.6301 30.4287 11.5912 30.4767 11.5912H31.0218C31.0697 11.5912 31.1086 11.5524 31.1086 11.5044V11.3118C31.1086 11.2639 31.1474 11.225 31.1954 11.225H31.1957C31.2436 11.225 31.2825 11.2638 31.2825 11.3118V11.8706C31.2825 11.9185 31.3213 11.9574 31.3693 11.9574H31.3788C31.4267 11.9574 31.4656 11.9186 31.4656 11.8706V11.3118C31.4656 11.2639 31.5044 11.225 31.5524 11.225H31.5527C31.6006 11.225 31.6395 11.2638 31.6395 11.3118V11.8706C31.6395 11.9185 31.6783 11.9574 31.7263 11.9574H31.7312C31.7792 11.9574 31.818 11.9186 31.818 11.8706V11.3118C31.818 11.2639 31.8568 11.225 31.9048 11.225H31.9143C31.9622 11.225 32.0011 11.2638 32.0011 11.3118V12.0492C32.0011 12.0971 31.9623 12.136 31.9143 12.136H31.1954C31.1475 12.136 31.1086 12.0972 31.1086 12.0492V11.8612C31.1086 11.8132 31.0698 11.7743 31.0218 11.7743H30.6553C30.6073 11.7743 30.5685 11.8132 30.5685 11.8612V11.8706C30.5685 11.9185 30.6073 11.9574 30.6553 11.9574H30.8386C30.8865 11.9574 30.9254 11.9962 30.9254 12.0442V12.0492C30.9254 12.097 30.8865 12.136 30.8386 12.136Z" fill="#F5F5F5"/>
<path d="M0.0877889 12.6897H1.52297C1.57091 12.6897 1.60979 12.6508 1.60979 12.6028V12.4103C1.60979 12.3623 1.57097 12.3235 1.52297 12.3235H0.0877889C0.0398515 12.3235 0.000976562 12.3623 0.000976562 12.4103V12.6028C0.000976562 12.6508 0.039789 12.6897 0.0877889 12.6897ZM1.87735 12.6897H3.31028C3.35822 12.6897 3.3971 12.6508 3.3971 12.6028V12.4103C3.3971 12.3623 3.35828 12.3235 3.31028 12.3235H1.87735C1.82941 12.3235 1.79054 12.3623 1.79054 12.4103V12.6028C1.79054 12.6508 1.82941 12.6897 1.87735 12.6897Z" fill="#F5F5F5"/>
<path d="M3.66469 12.6897H5.09763C5.14556 12.6897 5.18444 12.6508 5.18444 12.6028V12.4103C5.18444 12.3623 5.14563 12.3235 5.09763 12.3235H3.66469C3.61676 12.3235 3.57788 12.3623 3.57788 12.4103V12.6028C3.57794 12.6508 3.61682 12.6897 3.66469 12.6897ZM5.44975 12.6897H6.88725C6.93519 12.6897 6.97406 12.6508 6.97406 12.6028V12.4103C6.97406 12.3623 6.93525 12.3235 6.88725 12.3235H5.44975C5.40181 12.3235 5.36294 12.3623 5.36294 12.4103V12.6028C5.36294 12.6508 5.40181 12.6897 5.44975 12.6897Z" fill="#F5F5F5"/>
<path d="M7.2394 12.6897H8.67458C8.72252 12.6897 8.7614 12.6508 8.7614 12.6028V12.4103C8.7614 12.3623 8.72258 12.3235 8.67458 12.3235H7.2394C7.19146 12.3235 7.15259 12.3623 7.15259 12.4103V12.6028C7.15253 12.6508 7.19146 12.6897 7.2394 12.6897ZM9.02665 12.6897H10.4618C10.5098 12.6897 10.5486 12.6508 10.5486 12.6028V12.4103C10.5486 12.3623 10.5098 12.3235 10.4618 12.3235H9.02665C8.97871 12.3235 8.93983 12.3623 8.93983 12.4103V12.6028C8.9399 12.6508 8.97877 12.6897 9.02665 12.6897Z" fill="#F5F5F5"/>
<path d="M10.8141 12.6897H12.2493C12.2972 12.6897 12.3361 12.6508 12.3361 12.6028V12.4103C12.3361 12.3623 12.2973 12.3235 12.2493 12.3235H10.8141C10.7662 12.3235 10.7273 12.3623 10.7273 12.4103V12.6028C10.7274 12.6508 10.7662 12.6897 10.8141 12.6897ZM12.5992 12.6897H14.0367C14.0846 12.6897 14.1235 12.6508 14.1235 12.6028V12.4103C14.1235 12.3623 14.0847 12.3235 14.0367 12.3235H12.5992C12.5512 12.3235 12.5124 12.3623 12.5124 12.4103V12.6028C12.5124 12.6508 12.5512 12.6897 12.5992 12.6897Z" fill="#F5F5F5"/>
<path d="M14.3886 12.6897H15.8239C15.8718 12.6897 15.9107 12.6508 15.9107 12.6028V12.4103C15.9107 12.3623 15.8719 12.3235 15.8239 12.3235H14.3886C14.3406 12.3235 14.3018 12.3623 14.3018 12.4103V12.6028C14.3018 12.6508 14.3406 12.6897 14.3886 12.6897ZM16.1759 12.6897H17.6112C17.6591 12.6897 17.698 12.6508 17.698 12.6028V12.4103C17.698 12.3623 17.6592 12.3235 17.6112 12.3235H16.1759C16.1279 12.3235 16.0891 12.3623 16.0891 12.4103V12.6028C16.0891 12.6508 16.1279 12.6897 16.1759 12.6897Z" fill="#F5F5F5"/>
<path d="M17.963 12.6897H19.3983C19.4463 12.6897 19.4852 12.6508 19.4852 12.6028V12.4103C19.4852 12.3623 19.4463 12.3235 19.3983 12.3235H17.963C17.9151 12.3235 17.8762 12.3623 17.8762 12.4103V12.6028C17.8762 12.6508 17.9151 12.6897 17.963 12.6897ZM19.7527 12.6897H21.1857C21.2336 12.6897 21.2725 12.6508 21.2725 12.6028V12.4103C21.2725 12.3623 21.2337 12.3235 21.1857 12.3235H19.7527C19.7048 12.3235 19.6659 12.3623 19.6659 12.4103V12.6028C19.6659 12.6508 19.7048 12.6897 19.7527 12.6897Z" fill="#F5F5F5"/>
<path d="M21.5375 12.6897H22.9728C23.0207 12.6897 23.0596 12.6508 23.0596 12.6028V12.4103C23.0596 12.3623 23.0208 12.3235 22.9728 12.3235H21.5375C21.4896 12.3235 21.4507 12.3623 21.4507 12.4103V12.6028C21.4507 12.6508 21.4896 12.6897 21.5375 12.6897ZM23.3272 12.6897H24.76C24.8079 12.6897 24.8468 12.6508 24.8468 12.6028V12.4103C24.8468 12.3623 24.808 12.3235 24.76 12.3235H23.3272C23.2792 12.3235 23.2404 12.3623 23.2404 12.4103V12.6028C23.2404 12.6508 23.2792 12.6897 23.3272 12.6897Z" fill="#F5F5F5"/>
<path d="M25.1146 12.6897H26.5476C26.5955 12.6897 26.6344 12.6508 26.6344 12.6028V12.4103C26.6344 12.3623 26.5956 12.3235 26.5476 12.3235H25.1146C25.0667 12.3235 25.0278 12.3623 25.0278 12.4103V12.6028C25.0278 12.6508 25.0667 12.6897 25.1146 12.6897ZM26.902 12.6897H28.3373C28.3852 12.6897 28.4241 12.6508 28.4241 12.6028V12.4103C28.4241 12.3623 28.3853 12.3235 28.3373 12.3235H26.902C26.854 12.3235 26.8151 12.3623 26.8151 12.4103V12.6028C26.8151 12.6508 26.854 12.6897 26.902 12.6897Z" fill="#F5F5F5"/>
<path d="M28.6894 12.6897H30.1247C30.1726 12.6897 30.2115 12.6508 30.2115 12.6028V12.4103C30.2115 12.3623 30.1727 12.3235 30.1247 12.3235H28.6894C28.6414 12.3235 28.6025 12.3623 28.6025 12.4103V12.6028C28.6026 12.6508 28.6415 12.6897 28.6894 12.6897ZM30.4768 12.6897H31.9143C31.9622 12.6897 32.0011 12.6508 32.0011 12.6028V12.4103C32.0011 12.3623 31.9623 12.3235 31.9143 12.3235H30.4768C30.4288 12.3235 30.39 12.3623 30.39 12.4103V12.6028C30.3899 12.6508 30.4288 12.6897 30.4768 12.6897Z" fill="#F5F5F5"/>
<path d="M31.914 19.8641H31.9092C31.8613 19.8641 31.8224 19.9029 31.8224 19.9509V20.1389C31.8224 20.1868 31.7836 20.2257 31.7356 20.2257H31.3714C31.3235 20.2257 31.2846 20.1869 31.2846 20.1389V19.9509C31.2846 19.903 31.2458 19.8641 31.1978 19.8641H30.4789C30.431 19.8641 30.3921 19.9029 30.3921 19.9509V20.3221C30.3921 20.37 30.4309 20.4089 30.4789 20.4089H30.8408C30.8887 20.4089 30.9276 20.3701 30.9276 20.3221V20.3126C30.9276 20.2646 30.8888 20.2258 30.8408 20.2258H30.6574C30.6094 20.2258 30.5705 20.1869 30.5705 20.1389V20.1295C30.5705 20.0816 30.6094 20.0427 30.6574 20.0427H31.0194C31.0673 20.0427 31.1062 20.0815 31.1062 20.1295V20.3221C31.1062 20.37 31.145 20.4089 31.193 20.4089H31.9141C31.962 20.4089 32.0009 20.3701 32.0009 20.3221V19.9509C32.0009 19.903 31.962 19.8641 31.914 19.8641ZM31.5548 19.8641H31.5499C31.5019 19.8641 31.463 19.9029 31.463 19.9509V19.9558C31.463 20.0038 31.5019 20.0426 31.5499 20.0426H31.5548C31.6027 20.0426 31.6416 20.0038 31.6416 19.9558V19.9509C31.6416 19.903 31.6027 19.8641 31.5548 19.8641ZM31.914 20.5919H29.7626C29.7147 20.5919 29.6758 20.6307 29.6758 20.6787V20.6882C29.6758 20.7361 29.7146 20.775 29.7626 20.775H31.914C31.962 20.775 32.0009 20.7362 32.0009 20.6882V20.6787C32.0009 20.6307 31.962 20.5919 31.914 20.5919ZM29.7627 19.8641H30.1245C30.1725 19.8641 30.2114 19.9029 30.2114 19.9509V20.3221C30.2114 20.37 30.1725 20.4089 30.1245 20.4089H29.584C29.5361 20.4089 29.4972 20.4477 29.4972 20.4957V20.6883C29.4972 20.7362 29.4584 20.7751 29.4104 20.7751H29.4056C29.3577 20.7751 29.3188 20.7363 29.3188 20.6883V20.1295C29.3188 20.0816 29.28 20.0427 29.232 20.0427H29.227C29.1791 20.0427 29.1402 20.0815 29.1402 20.1295V20.6883C29.1402 20.7362 29.1014 20.7751 29.0534 20.7751H29.0486C29.0007 20.7751 28.9618 20.7363 28.9618 20.6883V20.1295C28.9618 20.0816 28.923 20.0427 28.875 20.0427H28.8678C28.8199 20.0427 28.781 20.0815 28.781 20.1295V20.6883C28.781 20.7362 28.7422 20.7751 28.6942 20.7751H28.6915C28.6436 20.7751 28.6047 20.7363 28.6047 20.6883V19.951C28.6047 19.903 28.6435 19.8641 28.6915 19.8641H29.4104C29.4584 19.8641 29.4972 19.903 29.4972 19.951V20.1389C29.4972 20.1869 29.536 20.2258 29.584 20.2258H29.9459C29.9939 20.2258 30.0327 20.1869 30.0327 20.1389V20.1295C30.0327 20.0816 29.9939 20.0427 29.9459 20.0427H29.7626C29.7147 20.0427 29.6758 20.0039 29.6758 19.9559V19.951C29.6758 19.903 29.7147 19.8641 29.7627 19.8641Z" fill="#F5F5F5"/>
<path d="M28.3373 19.8641H28.3301C28.2822 19.8641 28.2433 19.9029 28.2433 19.9509V20.1389C28.2433 20.1868 28.2045 20.2257 28.1565 20.2257H27.7969C27.749 20.2257 27.7101 20.1869 27.7101 20.1389V19.9509C27.7101 19.903 27.6713 19.8641 27.6233 19.8641H26.9044C26.8565 19.8641 26.8176 19.9029 26.8176 19.9509V20.3221C26.8176 20.37 26.8564 20.4089 26.9044 20.4089H27.2663C27.3142 20.4089 27.3531 20.3701 27.3531 20.3221V20.3126C27.3531 20.2646 27.3143 20.2258 27.2663 20.2258H27.0828C27.0349 20.2258 26.996 20.1869 26.996 20.1389V20.1295C26.996 20.0816 27.0348 20.0427 27.0828 20.0427H27.4448C27.4928 20.0427 27.5316 20.0815 27.5316 20.1295V20.3221C27.5316 20.37 27.5705 20.4089 27.6185 20.4089H28.3373C28.3853 20.4089 28.4241 20.3701 28.4241 20.3221V19.9509C28.4241 19.903 28.3852 19.8641 28.3373 19.8641ZM27.9803 19.8641H27.9755C27.9275 19.8641 27.8886 19.9029 27.8886 19.9509V19.9558C27.8886 20.0038 27.9275 20.0426 27.9755 20.0426H27.9803C28.0282 20.0426 28.0671 20.0038 28.0671 19.9558V19.9509C28.067 19.903 28.0282 19.8641 27.9803 19.8641ZM28.3373 20.5919H26.1881C26.1401 20.5919 26.1013 20.6307 26.1013 20.6787V20.6882C26.1013 20.7361 26.1401 20.775 26.1881 20.775H28.3373C28.3853 20.775 28.4241 20.7362 28.4241 20.6882V20.6787C28.4241 20.6307 28.3852 20.5919 28.3373 20.5919ZM26.1881 19.8641H26.5523C26.6002 19.8641 26.6391 19.9029 26.6391 19.9509V20.3221C26.6391 20.37 26.6003 20.4089 26.5523 20.4089H26.0118C25.9638 20.4089 25.925 20.4477 25.925 20.4957V20.6883C25.925 20.7362 25.8861 20.7751 25.8381 20.7751H25.831C25.783 20.7751 25.7441 20.7363 25.7441 20.6883V20.1295C25.7441 20.0816 25.7053 20.0427 25.6573 20.0427H25.6501C25.6022 20.0427 25.5633 20.0815 25.5633 20.1295V20.6883C25.5633 20.7362 25.5245 20.7751 25.4765 20.7751H25.4739C25.426 20.7751 25.3871 20.7363 25.3871 20.6883V20.1295C25.3871 20.0816 25.3483 20.0427 25.3003 20.0427H25.2931C25.2451 20.0427 25.2063 20.0815 25.2063 20.1295V20.6883C25.2063 20.7362 25.1675 20.7751 25.1195 20.7751H25.1146C25.0667 20.7751 25.0278 20.7363 25.0278 20.6883V19.951C25.0278 19.903 25.0666 19.8641 25.1146 19.8641H25.8381C25.886 19.8641 25.9249 19.903 25.9249 19.951V20.1389C25.9249 20.1869 25.9637 20.2258 26.0117 20.2258H26.3713C26.4193 20.2258 26.4581 20.1869 26.4581 20.1389V20.1295C26.4581 20.0816 26.4193 20.0427 26.3713 20.0427H26.1879C26.14 20.0427 26.1011 20.0039 26.1011 19.9559V19.951C26.1013 19.903 26.1401 19.8641 26.1881 19.8641Z" fill="#F5F5F5"/>
<path d="M24.7625 19.8641H24.7577C24.7097 19.8641 24.6709 19.9029 24.6709 19.9509V20.1389C24.6709 20.1868 24.6321 20.2257 24.5841 20.2257H24.2221C24.1741 20.2257 24.1352 20.1869 24.1352 20.1389V19.9509C24.1352 19.903 24.0964 19.8641 24.0484 19.8641H23.3273C23.2794 19.8641 23.2405 19.9029 23.2405 19.9509V20.3221C23.2405 20.37 23.2793 20.4089 23.3273 20.4089H23.6892C23.7371 20.4089 23.776 20.3701 23.776 20.3221V20.3126C23.776 20.2646 23.7372 20.2258 23.6892 20.2258H23.5057C23.4578 20.2258 23.4189 20.1869 23.4189 20.1389V20.1295C23.4189 20.0816 23.4577 20.0427 23.5057 20.0427H23.8699C23.9179 20.0427 23.9567 20.0815 23.9567 20.1295V20.3221C23.9567 20.37 23.9956 20.4089 24.0436 20.4089H24.7624C24.8104 20.4089 24.8492 20.3701 24.8492 20.3221V19.9509C24.8494 19.903 24.8104 19.8641 24.7625 19.8641ZM24.4055 19.8641H24.4007C24.3527 19.8641 24.3139 19.9029 24.3139 19.9509V19.9558C24.3139 20.0038 24.3527 20.0426 24.4007 20.0426H24.4055C24.4534 20.0426 24.4923 20.0038 24.4923 19.9558V19.9509C24.4923 19.903 24.4534 19.8641 24.4055 19.8641ZM24.7625 20.5919H22.6109C22.563 20.5919 22.5241 20.6307 22.5241 20.6787V20.6882C22.5241 20.7361 22.5629 20.775 22.6109 20.775H24.7625C24.8104 20.775 24.8493 20.7362 24.8493 20.6882V20.6787C24.8494 20.6307 24.8104 20.5919 24.7625 20.5919ZM22.611 19.8641H22.9752C23.0231 19.8641 23.062 19.9029 23.062 19.9509V20.3221C23.062 20.37 23.0232 20.4089 22.9752 20.4089H22.4348C22.3869 20.4089 22.348 20.4477 22.348 20.4957V20.6883C22.348 20.7362 22.3092 20.7751 22.2612 20.7751H22.2562C22.2083 20.7751 22.1694 20.7363 22.1694 20.6883V20.1295C22.1694 20.0816 22.1306 20.0427 22.0826 20.0427H22.0754C22.0275 20.0427 21.9886 20.0815 21.9886 20.1295V20.6883C21.9886 20.7362 21.9498 20.7751 21.9018 20.7751H21.8946C21.8467 20.7751 21.8078 20.7363 21.8078 20.6883V20.1295C21.8078 20.0816 21.769 20.0427 21.721 20.0427H21.7184C21.6704 20.0427 21.6316 20.0815 21.6316 20.1295V20.6883C21.6316 20.7362 21.5927 20.7751 21.5448 20.7751H21.5399C21.492 20.7751 21.4531 20.7363 21.4531 20.6883V19.951C21.4531 19.903 21.4919 19.8641 21.5399 19.8641H22.2612C22.3091 19.8641 22.348 19.903 22.348 19.951V20.1389C22.348 20.1869 22.3868 20.2258 22.4348 20.2258H22.7967C22.8446 20.2258 22.8835 20.1869 22.8835 20.1389V20.1295C22.8835 20.0816 22.8447 20.0427 22.7967 20.0427H22.6109C22.5629 20.0427 22.5241 20.0039 22.5241 19.9559V19.951C22.5242 19.903 22.5631 19.8641 22.611 19.8641Z" fill="#F5F5F5"/>
<path d="M21.1881 19.8641H21.1833C21.1353 19.8641 21.0965 19.9029 21.0965 19.9509V20.1389C21.0965 20.1868 21.0577 20.2257 21.0097 20.2257H20.6478C20.5998 20.2257 20.561 20.1869 20.561 20.1389V19.9509C20.561 19.903 20.5222 19.8641 20.4742 19.8641H19.7529C19.705 19.8641 19.6661 19.9029 19.6661 19.9509V20.3221C19.6661 20.37 19.7049 20.4089 19.7529 20.4089H20.1171C20.165 20.4089 20.2039 20.3701 20.2039 20.3221V20.3126C20.2039 20.2646 20.1651 20.2258 20.1171 20.2258H19.9337C19.8857 20.2258 19.8468 20.1869 19.8468 20.1389V20.1295C19.8468 20.0816 19.8857 20.0427 19.9337 20.0427H20.2955C20.3435 20.0427 20.3823 20.0815 20.3823 20.1295V20.3221C20.3823 20.37 20.4212 20.4089 20.4692 20.4089H21.188C21.236 20.4089 21.2748 20.3701 21.2748 20.3221V19.9509C21.2748 19.903 21.236 19.8641 21.1881 19.8641ZM20.831 19.8641H20.8262C20.7783 19.8641 20.7394 19.9029 20.7394 19.9509V19.9558C20.7394 20.0038 20.7782 20.0426 20.8262 20.0426H20.831C20.879 20.0426 20.9178 20.0038 20.9178 19.9558V19.9509C20.9178 19.903 20.879 19.8641 20.831 19.8641ZM21.1881 20.5919H19.0388C18.9909 20.5919 18.952 20.6307 18.952 20.6787V20.6882C18.952 20.7361 18.9908 20.775 19.0388 20.775H21.1881C21.236 20.775 21.2749 20.7362 21.2749 20.6882V20.6787C21.2748 20.6307 21.236 20.5919 21.1881 20.5919ZM19.0388 19.8641H19.403C19.451 19.8641 19.4898 19.9029 19.4898 19.9509V20.3221C19.4898 20.37 19.451 20.4089 19.403 20.4089H18.858C18.81 20.4089 18.7712 20.4477 18.7712 20.4957V20.6883C18.7712 20.7362 18.7323 20.7751 18.6843 20.7751H18.6795C18.6316 20.7751 18.5927 20.7363 18.5927 20.6883V20.1295C18.5927 20.0816 18.5539 20.0427 18.5059 20.0427H18.5033C18.4553 20.0427 18.4165 20.0815 18.4165 20.1295V20.6883C18.4165 20.7362 18.3777 20.7751 18.3297 20.7751H18.3225C18.2745 20.7751 18.2357 20.7363 18.2357 20.6883V20.1295C18.2357 20.0816 18.1968 20.0427 18.1488 20.0427H18.1439C18.096 20.0427 18.0571 20.0815 18.0571 20.1295V20.6883C18.0571 20.7362 18.0183 20.7751 17.9703 20.7751H17.9655C17.9175 20.7751 17.8787 20.7363 17.8787 20.6883V19.951C17.8787 19.903 17.9175 19.8641 17.9655 19.8641H18.6843C18.7323 19.8641 18.7712 19.903 18.7712 19.951V20.1389C18.7712 20.1869 18.81 20.2258 18.858 20.2258H19.2222C19.2701 20.2258 19.309 20.1869 19.309 20.1389V20.1295C19.309 20.0816 19.2702 20.0427 19.2222 20.0427H19.0387C18.9908 20.0427 18.9519 20.0039 18.9519 19.9559V19.951C18.9521 19.903 18.9909 19.8641 19.0388 19.8641Z" fill="#F5F5F5"/>
<path d="M17.6134 19.8641H17.6084C17.5605 19.8641 17.5216 19.9029 17.5216 19.9509V20.1389C17.5216 20.1868 17.4828 20.2257 17.4348 20.2257H17.073C17.025 20.2257 16.9861 20.1869 16.9861 20.1389V19.9509C16.9861 19.903 16.9473 19.8641 16.8993 19.8641H16.1781C16.1301 19.8641 16.0913 19.9029 16.0913 19.9509V20.3221C16.0913 20.37 16.1301 20.4089 16.1781 20.4089H16.5423C16.5902 20.4089 16.6291 20.3701 16.6291 20.3221V20.3126C16.6291 20.2646 16.5903 20.2258 16.5423 20.2258H16.3566C16.3087 20.2258 16.2698 20.1869 16.2698 20.1389V20.1295C16.2698 20.0816 16.3086 20.0427 16.3566 20.0427H16.7185C16.7664 20.0427 16.8053 20.0815 16.8053 20.1295V20.3221C16.8053 20.37 16.8441 20.4089 16.8921 20.4089H17.6134C17.6613 20.4089 17.7002 20.3701 17.7002 20.3221V19.9509C17.7001 19.903 17.6613 19.8641 17.6134 19.8641ZM17.254 19.8641H17.2514C17.2034 19.8641 17.1646 19.9029 17.1646 19.9509V19.9558C17.1646 20.0038 17.2034 20.0426 17.2514 20.0426H17.254C17.3019 20.0426 17.3408 20.0038 17.3408 19.9558V19.9509C17.3408 19.903 17.3019 19.8641 17.254 19.8641ZM17.6134 20.5919H15.4618C15.4139 20.5919 15.375 20.6307 15.375 20.6787V20.6882C15.375 20.7361 15.4138 20.775 15.4618 20.775H17.6134C17.6613 20.775 17.7002 20.7362 17.7002 20.6882V20.6787C17.7001 20.6307 17.6613 20.5919 17.6134 20.5919ZM15.4618 19.8641H15.826C15.8739 19.8641 15.9128 19.9029 15.9128 19.9509V20.3221C15.9128 20.37 15.874 20.4089 15.826 20.4089H15.2832C15.2353 20.4089 15.1964 20.4477 15.1964 20.4957V20.6883C15.1964 20.7362 15.1576 20.7751 15.1096 20.7751H15.1048C15.0568 20.7751 15.018 20.7363 15.018 20.6883V20.1295C15.018 20.0816 14.9791 20.0427 14.9311 20.0427H14.9262C14.8783 20.0427 14.8394 20.0815 14.8394 20.1295V20.6883C14.8394 20.7362 14.8006 20.7751 14.7526 20.7751H14.7478C14.6998 20.7751 14.661 20.7363 14.661 20.6883V20.1295C14.661 20.0816 14.6221 20.0427 14.5741 20.0427H14.5693C14.5214 20.0427 14.4825 20.0815 14.4825 20.1295V20.6883C14.4825 20.7362 14.4437 20.7751 14.3957 20.7751H14.3908C14.3428 20.7751 14.304 20.7363 14.304 20.6883V19.951C14.304 19.903 14.3428 19.8641 14.3908 19.8641H15.1096C15.1576 19.8641 15.1965 19.903 15.1965 19.951V20.1389C15.1965 20.1869 15.2353 20.2258 15.2833 20.2258H15.6475C15.6954 20.2258 15.7343 20.1869 15.7343 20.1389V20.1295C15.7343 20.0816 15.6955 20.0427 15.6475 20.0427H15.4618C15.4139 20.0427 15.375 20.0039 15.375 19.9559V19.951C15.375 19.903 15.4138 19.8641 15.4618 19.8641Z" fill="#F5F5F5"/>
<path d="M14.0389 19.8641H14.034C13.986 19.8641 13.9472 19.9029 13.9472 19.9509V20.1389C13.9472 20.1868 13.9084 20.2257 13.8604 20.2257H13.4985C13.4505 20.2257 13.4117 20.1869 13.4117 20.1389V19.9509C13.4117 19.903 13.3729 19.8641 13.3249 19.8641H12.6036C12.5557 19.8641 12.5168 19.9029 12.5168 19.9509V20.3221C12.5168 20.37 12.5556 20.4089 12.6036 20.4089H12.9656C13.0135 20.4089 13.0524 20.3701 13.0524 20.3221V20.3126C13.0524 20.2646 13.0136 20.2258 12.9656 20.2258H12.7844C12.7365 20.2258 12.6976 20.1869 12.6976 20.1389V20.1295C12.6976 20.0816 12.7364 20.0427 12.7844 20.0427H13.144C13.192 20.0427 13.2309 20.0815 13.2309 20.1295V20.3221C13.2309 20.37 13.2697 20.4089 13.3177 20.4089H14.0389C14.0869 20.4089 14.1257 20.3701 14.1257 20.3221V19.9509C14.1257 19.903 14.0869 19.8641 14.0389 19.8641ZM13.6796 19.8641H13.677C13.629 19.8641 13.5902 19.9029 13.5902 19.9509V19.9558C13.5902 20.0038 13.629 20.0426 13.677 20.0426H13.6796C13.7275 20.0426 13.7664 20.0038 13.7664 19.9558V19.9509C13.7664 19.903 13.7275 19.8641 13.6796 19.8641ZM14.0389 20.5919H11.8874C11.8394 20.5919 11.8006 20.6307 11.8006 20.6787V20.6882C11.8006 20.7361 11.8394 20.775 11.8874 20.775H14.0389C14.0868 20.775 14.1257 20.7362 14.1257 20.6882V20.6787C14.1257 20.6307 14.0869 20.5919 14.0389 20.5919ZM11.8874 19.8641H12.2492C12.2972 19.8641 12.3361 19.9029 12.3361 19.9509V20.3221C12.3361 20.37 12.2972 20.4089 12.2492 20.4089H11.7089C11.6609 20.4089 11.6221 20.4477 11.6221 20.4957V20.6883C11.6221 20.7362 11.5832 20.7751 11.5352 20.7751H11.5303C11.4824 20.7751 11.4435 20.7363 11.4435 20.6883V20.1295C11.4435 20.0816 11.4047 20.0427 11.3567 20.0427H11.3519C11.3039 20.0427 11.2651 20.0815 11.2651 20.1295V20.6883C11.2651 20.7362 11.2262 20.7751 11.1782 20.7751H11.1733C11.1254 20.7751 11.0865 20.7363 11.0865 20.6883V20.1295C11.0865 20.0816 11.0477 20.0427 10.9997 20.0427H10.9949C10.9469 20.0427 10.9081 20.0815 10.9081 20.1295V20.6883C10.9081 20.7362 10.8692 20.7751 10.8212 20.7751H10.8163C10.7684 20.7751 10.7295 20.7363 10.7295 20.6883V19.951C10.7295 19.903 10.7683 19.8641 10.8163 19.8641H11.5354C11.5833 19.8641 11.6222 19.903 11.6222 19.951V20.1389C11.6222 20.1869 11.661 20.2258 11.709 20.2258H12.0731C12.1211 20.2258 12.1599 20.1869 12.1599 20.1389V20.1295C12.1599 20.0816 12.1211 20.0427 12.0731 20.0427H11.8875C11.8396 20.0427 11.8007 20.0039 11.8007 19.9559V19.951C11.8006 19.903 11.8395 19.8641 11.8874 19.8641Z" fill="#F5F5F5"/>
<path d="M10.464 19.8641H10.4591C10.4112 19.8641 10.3723 19.9029 10.3723 19.9509V20.1389C10.3723 20.1868 10.3335 20.2257 10.2855 20.2257H9.92135C9.87341 20.2257 9.83454 20.1869 9.83454 20.1389V19.9509C9.83454 19.903 9.79572 19.8641 9.74772 19.8641H9.02866C8.98073 19.8641 8.94185 19.9029 8.94185 19.9509V20.3221C8.94185 20.37 8.98066 20.4089 9.02866 20.4089H9.39066C9.4386 20.4089 9.47748 20.3701 9.47748 20.3221V20.3126C9.47748 20.2646 9.43866 20.2258 9.39066 20.2258H9.20485C9.15691 20.2258 9.11804 20.1869 9.11804 20.1389V20.1295C9.11804 20.0816 9.15685 20.0427 9.20485 20.0427H9.57141C9.61935 20.0427 9.65822 20.0815 9.65822 20.1295V20.3221C9.65822 20.37 9.69704 20.4089 9.74504 20.4089H10.4639C10.5118 20.4089 10.5507 20.3701 10.5507 20.3221V19.9509C10.5508 19.903 10.512 19.8641 10.464 19.8641ZM10.107 19.8641H10.0998C10.0518 19.8641 10.013 19.9029 10.013 19.9509V19.9558C10.013 20.0038 10.0518 20.0426 10.0998 20.0426H10.107C10.1549 20.0426 10.1938 20.0038 10.1938 19.9558V19.9509C10.1938 19.903 10.1549 19.8641 10.107 19.8641ZM10.464 20.5919H8.31254C8.2646 20.5919 8.22573 20.6307 8.22573 20.6787V20.6882C8.22573 20.7361 8.26454 20.775 8.31254 20.775H10.464C10.512 20.775 10.5508 20.7362 10.5508 20.6882V20.6787C10.5508 20.6307 10.512 20.5919 10.464 20.5919ZM8.31241 19.8641H8.67429C8.72223 19.8641 8.7611 19.9029 8.7611 19.9509V20.3221C8.7611 20.37 8.72229 20.4089 8.67429 20.4089H8.13391C8.08598 20.4089 8.0471 20.4477 8.0471 20.4957V20.6883C8.0471 20.7362 8.00829 20.7751 7.96029 20.7751H7.95535C7.90741 20.7751 7.86854 20.7363 7.86854 20.6883V20.1295C7.86854 20.0816 7.82973 20.0427 7.78173 20.0427H7.77692C7.72898 20.0427 7.6901 20.0815 7.6901 20.1295V20.6883C7.6901 20.7362 7.65129 20.7751 7.60329 20.7751H7.59835C7.55042 20.7751 7.51154 20.7363 7.51154 20.6883V20.1295C7.51154 20.0816 7.47273 20.0427 7.42473 20.0427H7.41754C7.3696 20.0427 7.33073 20.0815 7.33073 20.1295V20.6883C7.33073 20.7362 7.29192 20.7751 7.24392 20.7751H7.24135C7.19342 20.7751 7.15454 20.7363 7.15454 20.6883V19.951C7.15454 19.903 7.19335 19.8641 7.24135 19.8641H7.96023C8.00816 19.8641 8.04704 19.903 8.04704 19.951V20.1389C8.04704 20.1869 8.08585 20.2258 8.13385 20.2258H8.49348C8.54141 20.2258 8.58029 20.1869 8.58029 20.1389V20.1295C8.58029 20.0816 8.54148 20.0427 8.49348 20.0427H8.31229C8.26435 20.0427 8.22548 20.0039 8.22548 19.9559V19.951C8.22566 19.903 8.26448 19.8641 8.31241 19.8641Z" fill="#F5F5F5"/>
<path d="M6.88731 19.8641H6.88469C6.83675 19.8641 6.79787 19.9029 6.79787 19.9509V20.1389C6.79787 20.1868 6.75906 20.2257 6.71106 20.2257H6.34906C6.30113 20.2257 6.26225 20.1869 6.26225 20.1389V19.9509C6.26225 19.903 6.22344 19.8641 6.17544 19.8641H5.45444C5.4065 19.8641 5.36763 19.9029 5.36763 19.9509V20.3221C5.36763 20.37 5.40644 20.4089 5.45444 20.4089H5.81394C5.86188 20.4089 5.90075 20.3701 5.90075 20.3221V20.3126C5.90075 20.2646 5.86194 20.2258 5.81394 20.2258H5.63063C5.58269 20.2258 5.54381 20.1869 5.54381 20.1389V20.1295C5.54381 20.0816 5.58263 20.0427 5.63063 20.0427H5.99481C6.04275 20.0427 6.08163 20.0815 6.08163 20.1295V20.3221C6.08163 20.37 6.12044 20.4089 6.16844 20.4089H6.8875C6.93544 20.4089 6.97431 20.3701 6.97431 20.3221V19.9509C6.97419 19.903 6.93525 19.8641 6.88731 19.8641ZM6.53031 19.8641H6.52538C6.47744 19.8641 6.43856 19.9029 6.43856 19.9509V19.9558C6.43856 20.0038 6.47738 20.0426 6.52538 20.0426H6.53031C6.57825 20.0426 6.61713 20.0038 6.61713 19.9558V19.9509C6.61713 19.903 6.57825 19.8641 6.53031 19.8641ZM6.88731 20.5919H4.7335C4.68557 20.5919 4.64669 20.6307 4.64669 20.6787V20.6882C4.64669 20.7361 4.6855 20.775 4.7335 20.775H6.88737C6.93531 20.775 6.97419 20.7362 6.97419 20.6882V20.6787C6.97419 20.6307 6.93525 20.5919 6.88731 20.5919ZM4.7335 19.8641H5.10007C5.148 19.8641 5.18688 19.9029 5.18688 19.9509V20.3221C5.18688 20.37 5.14807 20.4089 5.10007 20.4089H4.55957C4.51163 20.4089 4.47275 20.4477 4.47275 20.4957V20.6883C4.47275 20.7362 4.43394 20.7751 4.38594 20.7751H4.37875C4.33082 20.7751 4.29194 20.7363 4.29194 20.6883V20.1295C4.29194 20.0816 4.25313 20.0427 4.20513 20.0427H4.20032C4.15238 20.0427 4.11351 20.0815 4.11351 20.1295V20.6883C4.11351 20.7362 4.07469 20.7751 4.02669 20.7751H4.02407C3.97613 20.7751 3.93726 20.7363 3.93726 20.6883V20.1295C3.93726 20.0816 3.89844 20.0427 3.85044 20.0427H3.84326C3.79532 20.0427 3.75644 20.0815 3.75644 20.1295V20.6883C3.75644 20.7362 3.71763 20.7751 3.66963 20.7751H3.66469C3.61676 20.7751 3.57788 20.7363 3.57788 20.6883V19.951C3.57788 19.903 3.61669 19.8641 3.66469 19.8641H4.38594C4.43388 19.8641 4.47275 19.903 4.47275 19.951V20.1389C4.47275 20.1869 4.51157 20.2258 4.55957 20.2258H4.92144C4.96938 20.2258 5.00825 20.1869 5.00825 20.1389V20.1295C5.00825 20.0816 4.96944 20.0427 4.92144 20.0427H4.73363C4.68569 20.0427 4.64682 20.0039 4.64682 19.9559V19.951C4.64663 19.903 4.68557 19.8641 4.7335 19.8641Z" fill="#F5F5F5"/>
<path d="M3.3126 19.8641H3.30766C3.25972 19.8641 3.22085 19.9029 3.22085 19.9509V20.1389C3.22085 20.1868 3.18203 20.2257 3.13403 20.2257H2.77216C2.72422 20.2257 2.68535 20.1869 2.68535 20.1389V19.9509C2.68535 19.903 2.64653 19.8641 2.59853 19.8641H1.87735C1.82941 19.8641 1.79054 19.9029 1.79054 19.9509V20.3221C1.79054 20.37 1.82935 20.4089 1.87735 20.4089H2.23697C2.28491 20.4089 2.32378 20.3701 2.32378 20.3221V20.3126C2.32378 20.2646 2.28497 20.2258 2.23697 20.2258H2.05354C2.0056 20.2258 1.96672 20.1869 1.96672 20.1389V20.1295C1.96672 20.0816 2.00554 20.0427 2.05354 20.0427H2.4201C2.46803 20.0427 2.50691 20.0815 2.50691 20.1295V20.3221C2.50691 20.37 2.54572 20.4089 2.59372 20.4089H3.3126C3.36053 20.4089 3.39941 20.3701 3.39941 20.3221V19.9509C3.39941 19.903 3.36053 19.8641 3.3126 19.8641ZM2.9556 19.8641H2.95066C2.90272 19.8641 2.86385 19.9029 2.86385 19.9509V19.9558C2.86385 20.0038 2.90266 20.0426 2.95066 20.0426H2.9556C3.00353 20.0426 3.04241 20.0038 3.04241 19.9558V19.9509C3.04235 19.903 3.00353 19.8641 2.9556 19.8641ZM3.3126 20.5919H1.16341C1.11547 20.5919 1.0766 20.6307 1.0766 20.6787V20.6882C1.0766 20.7361 1.11541 20.775 1.16341 20.775H3.31266C3.3606 20.775 3.39947 20.7362 3.39947 20.6882V20.6787C3.39941 20.6307 3.36053 20.5919 3.3126 20.5919ZM1.16341 19.8641H1.52529C1.57322 19.8641 1.6121 19.9029 1.6121 19.9509V20.3221C1.6121 20.37 1.57329 20.4089 1.52529 20.4089H0.98035C0.932412 20.4089 0.893537 20.4477 0.893537 20.4957V20.6883C0.893537 20.7362 0.854725 20.7751 0.806725 20.7751H0.806475C0.758538 20.7751 0.719663 20.7363 0.719663 20.6883V20.1295C0.719663 20.0816 0.68085 20.0427 0.63285 20.0427H0.623225C0.575288 20.0427 0.536413 20.0815 0.536413 20.1295V20.6883C0.536413 20.7362 0.497601 20.7751 0.449601 20.7751H0.449413C0.401476 20.7751 0.362601 20.7363 0.362601 20.6883V20.1295C0.362601 20.0816 0.323788 20.0427 0.275789 20.0427H0.270789C0.222851 20.0427 0.183976 20.0815 0.183976 20.1295V20.6883C0.183976 20.7362 0.145164 20.7751 0.0971639 20.7751H0.0877889C0.0398515 20.7751 0.000976562 20.7363 0.000976562 20.6883V19.951C0.000976562 19.903 0.039789 19.8641 0.0877889 19.8641H0.806663C0.8546 19.8641 0.893475 19.903 0.893475 19.951V20.1389C0.893475 20.1869 0.932287 20.2258 0.980287 20.2258H1.34679C1.39472 20.2258 1.4336 20.1869 1.4336 20.1389V20.1295C1.4336 20.0816 1.39479 20.0427 1.34679 20.0427H1.16347C1.11554 20.0427 1.07666 20.0039 1.07666 19.9559V19.951C1.0766 19.903 1.11547 19.8641 1.16341 19.8641Z" fill="#F5F5F5"/>
<path d="M31.914 19.3103H30.4789C30.4309 19.3103 30.392 19.3491 30.392 19.3971V19.5897C30.392 19.6376 30.4309 19.6765 30.4789 19.6765H31.914C31.962 19.6765 32.0009 19.6377 32.0009 19.5897V19.3971C32.0009 19.3491 31.962 19.3103 31.914 19.3103ZM30.1245 19.3103H28.6915C28.6436 19.3103 28.6047 19.3491 28.6047 19.3971V19.5897C28.6047 19.6376 28.6435 19.6765 28.6915 19.6765H30.1245C30.1724 19.6765 30.2113 19.6377 30.2113 19.5897V19.3971C30.2113 19.3491 30.1724 19.3103 30.1245 19.3103Z" fill="#F5F5F5"/>
<path d="M28.3372 19.3103H26.9043C26.8563 19.3103 26.8175 19.3491 26.8175 19.3971V19.5897C26.8175 19.6376 26.8563 19.6765 26.9043 19.6765H28.3372C28.3851 19.6765 28.424 19.6377 28.424 19.5897V19.3971C28.424 19.3491 28.3851 19.3103 28.3372 19.3103ZM26.5521 19.3103H25.1146C25.0667 19.3103 25.0278 19.3491 25.0278 19.3971V19.5897C25.0278 19.6376 25.0666 19.6765 25.1146 19.6765H26.5521C26.6001 19.6765 26.639 19.6377 26.639 19.5897V19.3971C26.639 19.3491 26.6001 19.3103 26.5521 19.3103Z" fill="#F5F5F5"/>
<path d="M24.7626 19.3103H23.3274C23.2795 19.3103 23.2406 19.3491 23.2406 19.3971V19.5897C23.2406 19.6376 23.2794 19.6765 23.3274 19.6765H24.7626C24.8106 19.6765 24.8494 19.6377 24.8494 19.5897V19.3971C24.8495 19.3491 24.8106 19.3103 24.7626 19.3103ZM22.9754 19.3103H21.5402C21.4922 19.3103 21.4534 19.3491 21.4534 19.3971V19.5897C21.4534 19.6376 21.4922 19.6765 21.5402 19.6765H22.9754C23.0233 19.6765 23.0622 19.6377 23.0622 19.5897V19.3971C23.0622 19.3491 23.0232 19.3103 22.9754 19.3103Z" fill="#F5F5F5"/>
<path d="M21.188 19.3103H19.7528C19.7049 19.3103 19.666 19.3491 19.666 19.3971V19.5897C19.666 19.6376 19.7048 19.6765 19.7528 19.6765H21.188C21.236 19.6765 21.2748 19.6377 21.2748 19.5897V19.3971C21.2748 19.3491 21.2359 19.3103 21.188 19.3103ZM19.403 19.3103H17.9655C17.9175 19.3103 17.8787 19.3491 17.8787 19.3971V19.5897C17.8787 19.6376 17.9175 19.6765 17.9655 19.6765H19.403C19.4509 19.6765 19.4898 19.6377 19.4898 19.5897V19.3971C19.4898 19.3491 19.451 19.3103 19.403 19.3103Z" fill="#F5F5F5"/>
<path d="M17.6134 19.3103H16.1781C16.1301 19.3103 16.0913 19.3491 16.0913 19.3971V19.5897C16.0913 19.6376 16.1301 19.6765 16.1781 19.6765H17.6134C17.6613 19.6765 17.7002 19.6377 17.7002 19.5897V19.3971C17.7001 19.3491 17.6613 19.3103 17.6134 19.3103ZM15.8261 19.3103H14.3908C14.3428 19.3103 14.304 19.3491 14.304 19.3971V19.5897C14.304 19.6376 14.3428 19.6765 14.3908 19.6765H15.8261C15.874 19.6765 15.9129 19.6377 15.9129 19.5897V19.3971C15.9128 19.3491 15.874 19.3103 15.8261 19.3103Z" fill="#F5F5F5"/>
<path d="M14.0389 19.3103H12.6036C12.5557 19.3103 12.5168 19.3491 12.5168 19.3971V19.5897C12.5168 19.6376 12.5556 19.6765 12.6036 19.6765H14.0389C14.0869 19.6765 14.1257 19.6377 14.1257 19.5897V19.3971C14.1257 19.3491 14.0869 19.3103 14.0389 19.3103ZM12.2492 19.3103H10.8163C10.7684 19.3103 10.7295 19.3491 10.7295 19.3971V19.5897C10.7295 19.6376 10.7683 19.6765 10.8163 19.6765H12.2492C12.2972 19.6765 12.3361 19.6377 12.3361 19.5897V19.3971C12.3361 19.3491 12.2972 19.3103 12.2492 19.3103Z" fill="#F5F5F5"/>
<path d="M10.4641 19.3103H9.02878C8.98084 19.3103 8.94197 19.3491 8.94197 19.3971V19.5897C8.94197 19.6376 8.98078 19.6765 9.02878 19.6765H10.4641C10.512 19.6765 10.5509 19.6377 10.5509 19.5897V19.3971C10.5508 19.3491 10.512 19.3103 10.4641 19.3103ZM8.67441 19.3103H7.2416C7.19366 19.3103 7.15479 19.3491 7.15479 19.3971V19.5897C7.15479 19.6376 7.1936 19.6765 7.2416 19.6765H8.67441C8.72235 19.6765 8.76122 19.6377 8.76122 19.5897V19.3971C8.76116 19.3491 8.72235 19.3103 8.67441 19.3103Z" fill="#F5F5F5"/>
<path d="M6.88731 19.3103H5.45444C5.4065 19.3103 5.36763 19.3491 5.36763 19.3971V19.5897C5.36763 19.6376 5.40644 19.6765 5.45444 19.6765H6.88737C6.93531 19.6765 6.97419 19.6377 6.97419 19.5897V19.3971C6.97419 19.3491 6.93525 19.3103 6.88731 19.3103ZM5.1 19.3103H3.66469C3.61676 19.3103 3.57788 19.3491 3.57788 19.3971V19.5897C3.57788 19.6376 3.61669 19.6765 3.66469 19.6765H5.1C5.14794 19.6765 5.18682 19.6377 5.18682 19.5897V19.3971C5.18682 19.3491 5.14794 19.3103 5.1 19.3103Z" fill="#F5F5F5"/>
<path d="M3.3126 19.3103H1.87735C1.82941 19.3103 1.79054 19.3491 1.79054 19.3971V19.5897C1.79054 19.6376 1.82935 19.6765 1.87735 19.6765H3.31266C3.3606 19.6765 3.39947 19.6377 3.39947 19.5897V19.3971C3.39941 19.3491 3.36053 19.3103 3.3126 19.3103ZM1.52522 19.3103H0.0877889C0.039789 19.3103 0.000976562 19.3491 0.000976562 19.3971V19.5897C0.000976562 19.6376 0.039789 19.6765 0.0877889 19.6765H1.52529C1.57322 19.6765 1.6121 19.6377 1.6121 19.5897V19.3971C1.6121 19.3491 1.57322 19.3103 1.52522 19.3103Z" fill="#F5F5F5"/>
<path d="M15.5433 13.3922C15.7069 13.4358 15.8816 13.3877 16.0016 13.2655C16.1828 13.4489 16.4796 13.4533 16.6673 13.2744C16.7896 13.1565 16.8398 12.9775 16.7961 12.816C16.6368 13.0735 16.3008 13.1565 16.0432 12.9949C16.0301 12.9861 16.0126 12.9774 16.0018 12.9687C15.7596 13.1476 15.417 13.0996 15.2336 12.8596C15.227 12.8464 15.214 12.829 15.2051 12.816C15.1396 13.0693 15.2923 13.331 15.5433 13.3922Z" fill="#FF4B55"/>
<path d="M16.5601 18.491C17.1467 18.1689 17.6363 17.6615 17.9047 16.9931C18.3618 15.8475 18.074 14.5543 17.1995 13.7156C17.1695 13.6868 17.1238 13.7254 17.1456 13.7609C18.008 15.1673 17.6683 17.0155 16.3337 18.0282L16.3975 13.9428C16.3984 13.8874 16.3736 13.8345 16.3306 13.7996L16.1135 13.6242C16.047 13.5704 15.952 13.5707 15.8859 13.6248L15.672 13.7996C15.6293 13.8345 15.605 13.887 15.6058 13.9421L15.6678 18.0304C14.3331 17.0182 13.9926 15.1683 14.8537 13.7609C14.8755 13.7254 14.8298 13.6869 14.7998 13.7157C13.927 14.5545 13.6373 15.8475 14.0944 16.9931C14.3628 17.6613 14.8523 18.1688 15.4391 18.4909C15.0657 18.6189 14.6732 18.6868 14.2763 18.6754C14.2344 18.6742 14.226 18.7332 14.2661 18.7453C14.7704 18.8984 15.289 18.9089 15.7766 18.7996L15.9681 19.171C15.9813 19.1967 16.018 19.1968 16.0313 19.1711L16.2241 18.7998C16.7117 18.9089 17.2305 18.8982 17.7351 18.7452C17.7753 18.733 17.7669 18.674 17.725 18.6752C17.3276 18.6868 16.9341 18.6189 16.5601 18.491Z" fill="#FF4B55"/>
<path d="M18.9478 14.6929C18.6475 14.132 18.1489 13.7068 17.5553 13.4985C17.5182 13.4854 17.4892 13.5345 17.5195 13.5596C18.8299 14.639 19.0926 16.5616 18.0793 17.9535C18.0268 18.0233 17.9701 18.0975 17.9155 18.1585C19.1596 17.4907 19.62 15.9369 18.9478 14.6929Z" fill="#FF4B55"/>
<path d="M13.9219 17.9535C12.9085 16.5616 13.1691 14.6391 14.4793 13.5597C14.5097 13.5345 14.4806 13.4855 14.4434 13.4985C13.8506 13.7069 13.3554 14.132 13.0533 14.6929C12.3768 15.9369 12.8416 17.4907 14.0878 18.1585C14.0289 18.0975 13.9721 18.0233 13.9219 17.9535Z" fill="#FF4B55"/>
</g>
<defs>
<clipPath id="clip0_544_12295">
<rect width="32" height="32" fill="white"/>
</clipPath>
</defs>
</svg>
