<svg width="32" height="32" viewBox="0 0 32 32" fill="none" xmlns="http://www.w3.org/2000/svg">
<g clip-path="url(#clip0_544_12289)">
<path d="M31.4482 26.4828H0.551749C0.247062 26.4828 0 26.2357 0 25.931V6.06899C0 5.7643 0.247062 5.51724 0.551749 5.51724H31.4483C31.7529 5.51724 32 5.7643 32 6.06899V25.931C31.9999 26.2358 31.7529 26.4828 31.4482 26.4828Z" fill="#F5F5F5"/>
<path d="M31.9999 7.13005H0V6.06899C0 5.7643 0.247062 5.51724 0.551749 5.51724H31.4483C31.7529 5.51724 32 5.7643 32 6.06899L31.9999 7.13005Z" fill="#FF4B55"/>
<path d="M31.9999 11.9681H0V13.5809H31.9999V11.9681Z" fill="#FF4B55"/>
<path d="M31.9999 8.74252H0V10.3553H31.9999V8.74252Z" fill="#FF4B55"/>
<path d="M31.9999 16.8064H0.551749C0.247062 16.8064 0 16.5593 0 16.2546V15.1935H31.9999V16.8064Z" fill="#FF4B55"/>
<path d="M31.9999 21.645H0V23.2577H31.9999V21.645Z" fill="#FF4B55"/>
<path d="M31.4482 26.4827H0.551749C0.247062 26.4827 0 26.2357 0 25.931V24.87H31.9999V25.931C31.9999 26.2357 31.7529 26.4827 31.4482 26.4827Z" fill="#FF4B55"/>
<path d="M31.9999 18.4194H0V20.0321H31.9999V18.4194Z" fill="#FF4B55"/>
<path d="M14.3448 5.5173H0.551749C0.247062 5.5173 0 5.7643 0 6.06899V16.2546C0 16.5593 0.247062 16.8063 0.551749 16.8063H14.3448C14.6495 16.8063 14.8966 16.5593 14.8966 16.2546V6.06899C14.8965 5.7643 14.6495 5.5173 14.3448 5.5173Z" fill="#41479B"/>
<path d="M1.55012 6.78365L1.67225 7.1499L2.05831 7.15283C2.10831 7.15327 2.129 7.21702 2.08881 7.24671L1.77825 7.47608L1.89475 7.84414C1.90987 7.89177 1.85556 7.93127 1.81487 7.90214L1.50081 7.67771L1.18675 7.90221C1.14606 7.93127 1.09187 7.89183 1.10687 7.84421L1.22337 7.47615L0.912811 7.24677C0.872624 7.21702 0.893311 7.15333 0.943311 7.1529L1.32937 7.14996L1.4515 6.78371C1.46725 6.73621 1.53425 6.73621 1.55012 6.78365Z" fill="#F5F5F5"/>
<path d="M1.54963 8.69949L1.67176 9.06574L2.05782 9.06868C2.10782 9.06912 2.12851 9.13287 2.08832 9.16256L1.77776 9.39193L1.89426 9.75999C1.90938 9.80762 1.85507 9.84712 1.81438 9.81799L1.50032 9.59356L1.18626 9.81806C1.14557 9.84712 1.09139 9.80768 1.10639 9.76006L1.22289 9.39199L0.912323 9.16262C0.872136 9.13287 0.892823 9.06918 0.942823 9.06874L1.32888 9.06581L1.45101 8.69956C1.46676 8.65212 1.53376 8.65212 1.54963 8.69949Z" fill="#F5F5F5"/>
<path d="M1.54963 10.6154L1.67176 10.9816L2.05782 10.9845C2.10782 10.985 2.12851 11.0487 2.08832 11.0784L1.77776 11.3078L1.89426 11.6759C1.90938 11.7235 1.85507 11.763 1.81438 11.7339L1.50032 11.5094L1.18626 11.7339C1.14557 11.763 1.09139 11.7235 1.10639 11.6759L1.22289 11.3079L0.912323 11.0785C0.872136 11.0487 0.892823 10.985 0.942823 10.9846L1.32888 10.9817L1.45101 10.6154C1.46676 10.568 1.53376 10.568 1.54963 10.6154Z" fill="#F5F5F5"/>
<path d="M1.54963 12.5313L1.67176 12.8976L2.05782 12.9005C2.10782 12.901 2.12851 12.9647 2.08832 12.9944L1.77776 13.2238L1.89426 13.5918C1.90938 13.6395 1.85507 13.679 1.81438 13.6498L1.50032 13.4254L1.18626 13.6499C1.14557 13.679 1.09139 13.6395 1.10639 13.5919L1.22289 13.2238L0.912323 12.9945C0.872136 12.9647 0.892823 12.901 0.942823 12.9006L1.32888 12.8976L1.45101 12.5314C1.46676 12.4839 1.53376 12.4839 1.54963 12.5313Z" fill="#F5F5F5"/>
<path d="M1.54963 14.4472L1.67176 14.8134L2.05782 14.8164C2.10782 14.8168 2.12851 14.8806 2.08832 14.9102L1.77776 15.1396L1.89426 15.5077C1.90938 15.5553 1.85507 15.5948 1.81438 15.5657L1.50032 15.3412L1.18626 15.5657C1.14557 15.5948 1.09139 15.5554 1.10639 15.5077L1.22289 15.1397L0.912323 14.9103C0.872136 14.8806 0.892823 14.8169 0.942823 14.8164L1.32888 14.8135L1.45101 14.4472C1.46676 14.3997 1.53376 14.3997 1.54963 14.4472Z" fill="#F5F5F5"/>
<path d="M3.03669 7.72294L3.15882 8.08919L3.54488 8.09213C3.59488 8.09256 3.61557 8.15631 3.57538 8.186L3.26482 8.41538L3.38132 8.78344C3.39644 8.83106 3.34213 8.87056 3.30144 8.84144L2.98738 8.61694L2.67332 8.84144C2.63263 8.8705 2.57845 8.83106 2.59345 8.78344L2.70995 8.41538L2.39938 8.186C2.3592 8.15625 2.37988 8.09256 2.42988 8.09213L2.81595 8.08919L2.93807 7.72294C2.95376 7.67556 3.02088 7.67556 3.03669 7.72294Z" fill="#F5F5F5"/>
<path d="M3.03669 9.63885L3.15882 10.0051L3.54488 10.008C3.59488 10.0085 3.61557 10.0722 3.57538 10.1019L3.26482 10.3313L3.38132 10.6993C3.39644 10.747 3.34213 10.7865 3.30144 10.7573L2.98738 10.5328L2.67332 10.7573C2.63263 10.7864 2.57845 10.747 2.59345 10.6993L2.70995 10.3313L2.39938 10.1019C2.3592 10.0722 2.37988 10.0085 2.42988 10.008L2.81595 10.0051L2.93807 9.63885C2.95376 9.59141 3.02088 9.59141 3.03669 9.63885Z" fill="#F5F5F5"/>
<path d="M3.03669 11.5547L3.15882 11.921L3.54488 11.9239C3.59488 11.9243 3.61557 11.9881 3.57538 12.0178L3.26482 12.2471L3.38132 12.6152C3.39644 12.6628 3.34213 12.7023 3.30144 12.6732L2.98738 12.4487L2.67332 12.6732C2.63263 12.7023 2.57845 12.6628 2.59345 12.6152L2.70995 12.2471L2.39938 12.0178C2.3592 11.988 2.37988 11.9243 2.42988 11.9239L2.81595 11.921L2.93807 11.5547C2.95376 11.5073 3.02088 11.5073 3.03669 11.5547Z" fill="#F5F5F5"/>
<path d="M3.03669 13.4706L3.15882 13.8368L3.54488 13.8398C3.59488 13.8402 3.61557 13.904 3.57538 13.9337L3.26482 14.163L3.38132 14.5311C3.39644 14.5787 3.34213 14.6182 3.30144 14.5891L2.98738 14.3646L2.67332 14.5891C2.63263 14.6182 2.57845 14.5787 2.59345 14.5311L2.70995 14.163L2.39938 13.9337C2.3592 13.9039 2.37988 13.8402 2.42988 13.8398L2.81595 13.8368L2.93807 13.4706C2.95376 13.4232 3.02088 13.4232 3.03669 13.4706Z" fill="#F5F5F5"/>
<path d="M4.52376 6.78362L4.64588 7.14987L5.03194 7.15281C5.08194 7.15325 5.10263 7.217 5.06244 7.24669L4.75188 7.47606L4.86838 7.84412C4.8835 7.89175 4.82919 7.93125 4.7885 7.90212L4.47444 7.67762L4.16038 7.90212C4.11969 7.93118 4.06551 7.89175 4.08051 7.84412L4.19701 7.47606L3.88644 7.24669C3.84626 7.21694 3.86694 7.15325 3.91694 7.15281L4.30301 7.14987L4.42513 6.78362C4.44088 6.73619 4.50794 6.73619 4.52376 6.78362Z" fill="#F5F5F5"/>
<path d="M4.52376 8.6995L4.64588 9.06575L5.03194 9.06869C5.08194 9.06913 5.10263 9.13288 5.06244 9.16256L4.75188 9.39194L4.86838 9.76C4.8835 9.80762 4.82919 9.84712 4.7885 9.818L4.47444 9.5935L4.16038 9.818C4.11969 9.84706 4.06551 9.80762 4.08051 9.76L4.19701 9.39194L3.88644 9.16256C3.84626 9.13281 3.86694 9.06913 3.91694 9.06869L4.30301 9.06575L4.42513 8.6995C4.44088 8.65213 4.50794 8.65213 4.52376 8.6995Z" fill="#F5F5F5"/>
<path d="M4.52376 10.6154L4.64588 10.9816L5.03194 10.9846C5.08194 10.985 5.10263 11.0487 5.06244 11.0784L4.75188 11.3078L4.86838 11.6759C4.8835 11.7235 4.82919 11.763 4.7885 11.7339L4.47444 11.5094L4.16038 11.7339C4.11969 11.7629 4.06551 11.7235 4.08051 11.6759L4.19701 11.3078L3.88644 11.0784C3.84626 11.0487 3.86694 10.985 3.91694 10.9846L4.30301 10.9816L4.42513 10.6154C4.44088 10.568 4.50794 10.568 4.52376 10.6154Z" fill="#F5F5F5"/>
<path d="M4.52376 12.5313L4.64588 12.8976L5.03194 12.9005C5.08194 12.9009 5.10263 12.9647 5.06244 12.9944L4.75188 13.2237L4.86838 13.5918C4.8835 13.6394 4.82919 13.6789 4.7885 13.6498L4.47444 13.4253L4.16038 13.6498C4.11969 13.6789 4.06551 13.6394 4.08051 13.5918L4.19701 13.2237L3.88644 12.9944C3.84626 12.9646 3.86694 12.9009 3.91694 12.9005L4.30301 12.8976L4.42513 12.5313C4.44088 12.4839 4.50794 12.4839 4.52376 12.5313Z" fill="#F5F5F5"/>
<path d="M4.52376 14.4472L4.64588 14.8134L5.03194 14.8164C5.08194 14.8168 5.10263 14.8806 5.06244 14.9102L4.75188 15.1396L4.86838 15.5077C4.8835 15.5553 4.82919 15.5948 4.7885 15.5657L4.47444 15.3412L4.16038 15.5657C4.11969 15.5947 4.06551 15.5553 4.08051 15.5077L4.19701 15.1396L3.88644 14.9102C3.84626 14.8805 3.86694 14.8168 3.91694 14.8164L4.30301 14.8134L4.42513 14.4472C4.44088 14.3997 4.50794 14.3997 4.52376 14.4472Z" fill="#F5F5F5"/>
<path d="M6.01082 7.72294L6.13294 8.08919L6.519 8.09213C6.569 8.09256 6.58969 8.15631 6.5495 8.186L6.23894 8.41538L6.35544 8.78344C6.37056 8.83106 6.31625 8.87056 6.27557 8.84144L5.9615 8.61694L5.64744 8.84144C5.60675 8.8705 5.55257 8.83106 5.56757 8.78344L5.68407 8.41538L5.3735 8.186C5.33332 8.15625 5.354 8.09256 5.404 8.09213L5.79007 8.08919L5.91219 7.72294C5.92788 7.67556 5.995 7.67556 6.01082 7.72294Z" fill="#F5F5F5"/>
<path d="M6.01082 9.63885L6.13294 10.0051L6.519 10.008C6.569 10.0085 6.58969 10.0722 6.5495 10.1019L6.23894 10.3313L6.35544 10.6993C6.37056 10.747 6.31625 10.7865 6.27557 10.7573L5.9615 10.5328L5.64744 10.7573C5.60675 10.7864 5.55257 10.747 5.56757 10.6993L5.68407 10.3313L5.3735 10.1019C5.33332 10.0722 5.354 10.0085 5.404 10.008L5.79007 10.0051L5.91219 9.63885C5.92788 9.59141 5.995 9.59141 6.01082 9.63885Z" fill="#F5F5F5"/>
<path d="M6.01082 11.5547L6.13294 11.921L6.519 11.9239C6.569 11.9243 6.58969 11.9881 6.5495 12.0178L6.23894 12.2471L6.35544 12.6152C6.37056 12.6628 6.31625 12.7023 6.27557 12.6732L5.9615 12.4487L5.64744 12.6732C5.60675 12.7023 5.55257 12.6628 5.56757 12.6152L5.68407 12.2471L5.3735 12.0178C5.33332 11.988 5.354 11.9243 5.404 11.9239L5.79007 11.921L5.91219 11.5547C5.92788 11.5073 5.995 11.5073 6.01082 11.5547Z" fill="#F5F5F5"/>
<path d="M6.01082 13.4706L6.13294 13.8368L6.519 13.8398C6.569 13.8402 6.58969 13.904 6.5495 13.9337L6.23894 14.163L6.35544 14.5311C6.37056 14.5787 6.31625 14.6182 6.27557 14.5891L5.9615 14.3646L5.64744 14.5891C5.60675 14.6182 5.55257 14.5787 5.56757 14.5311L5.68407 14.163L5.3735 13.9337C5.33332 13.9039 5.354 13.8402 5.404 13.8398L5.79007 13.8368L5.91219 13.4706C5.92788 13.4232 5.995 13.4232 6.01082 13.4706Z" fill="#F5F5F5"/>
<path d="M7.49794 6.78362L7.62006 7.14987L8.00612 7.15281C8.05612 7.15325 8.07681 7.217 8.03662 7.24669L7.72606 7.47606L7.84256 7.84412C7.85769 7.89175 7.80338 7.93125 7.76269 7.90212L7.44856 7.67762L7.1345 7.90212C7.09381 7.93118 7.03963 7.89175 7.05463 7.84412L7.17113 7.47606L6.86057 7.24669C6.82038 7.21694 6.84107 7.15325 6.89107 7.15281L7.27713 7.14987L7.39925 6.78362C7.41506 6.73619 7.48213 6.73619 7.49794 6.78362Z" fill="#F5F5F5"/>
<path d="M7.49794 8.6995L7.62006 9.06575L8.00612 9.06869C8.05612 9.06913 8.07681 9.13288 8.03662 9.16256L7.72606 9.39194L7.84256 9.76C7.85769 9.80762 7.80338 9.84712 7.76269 9.818L7.44856 9.5935L7.1345 9.818C7.09381 9.84706 7.03963 9.80762 7.05463 9.76L7.17113 9.39194L6.86057 9.16256C6.82038 9.13281 6.84107 9.06913 6.89107 9.06869L7.27713 9.06575L7.39925 8.6995C7.41506 8.65213 7.48213 8.65213 7.49794 8.6995Z" fill="#F5F5F5"/>
<path d="M7.49794 10.6154L7.62006 10.9816L8.00612 10.9846C8.05612 10.985 8.07681 11.0487 8.03662 11.0784L7.72606 11.3078L7.84256 11.6759C7.85769 11.7235 7.80338 11.763 7.76269 11.7339L7.44856 11.5094L7.1345 11.7339C7.09381 11.7629 7.03963 11.7235 7.05463 11.6759L7.17113 11.3078L6.86057 11.0784C6.82038 11.0487 6.84107 10.985 6.89107 10.9846L7.27713 10.9816L7.39925 10.6154C7.41506 10.568 7.48213 10.568 7.49794 10.6154Z" fill="#F5F5F5"/>
<path d="M7.49794 12.5313L7.62006 12.8976L8.00612 12.9005C8.05612 12.9009 8.07681 12.9647 8.03662 12.9944L7.72606 13.2237L7.84256 13.5918C7.85769 13.6394 7.80338 13.6789 7.76269 13.6498L7.44856 13.4253L7.1345 13.6498C7.09381 13.6789 7.03963 13.6394 7.05463 13.5918L7.17113 13.2237L6.86057 12.9944C6.82038 12.9646 6.84107 12.9009 6.89107 12.9005L7.27713 12.8976L7.39925 12.5313C7.41506 12.4839 7.48213 12.4839 7.49794 12.5313Z" fill="#F5F5F5"/>
<path d="M7.49794 14.4472L7.62006 14.8134L8.00612 14.8164C8.05612 14.8168 8.07681 14.8806 8.03662 14.9102L7.72606 15.1396L7.84256 15.5077C7.85769 15.5553 7.80338 15.5948 7.76269 15.5657L7.44856 15.3412L7.1345 15.5657C7.09381 15.5947 7.03963 15.5553 7.05463 15.5077L7.17113 15.1396L6.86057 14.9102C6.82038 14.8805 6.84107 14.8168 6.89107 14.8164L7.27713 14.8134L7.39925 14.4472C7.41506 14.3997 7.48213 14.3997 7.49794 14.4472Z" fill="#F5F5F5"/>
<path d="M8.98494 7.72294L9.10706 8.08919L9.49312 8.09213C9.54312 8.09256 9.56381 8.15631 9.52362 8.186L9.21306 8.41538L9.32956 8.78344C9.34469 8.83106 9.29037 8.87056 9.24969 8.84144L8.93563 8.61694L8.62156 8.84144C8.58088 8.8705 8.52669 8.83106 8.54169 8.78344L8.65819 8.41538L8.34763 8.186C8.30744 8.15625 8.32813 8.09256 8.37813 8.09213L8.76419 8.08919L8.88631 7.72294C8.90213 7.67556 8.96913 7.67556 8.98494 7.72294Z" fill="#F5F5F5"/>
<path d="M8.98494 9.63885L9.10706 10.0051L9.49312 10.008C9.54312 10.0085 9.56381 10.0722 9.52362 10.1019L9.21306 10.3313L9.32956 10.6993C9.34469 10.747 9.29037 10.7865 9.24969 10.7573L8.93563 10.5328L8.62156 10.7573C8.58088 10.7864 8.52669 10.747 8.54169 10.6993L8.65819 10.3313L8.34763 10.1019C8.30744 10.0722 8.32813 10.0085 8.37813 10.008L8.76419 10.0051L8.88631 9.63885C8.90213 9.59141 8.96913 9.59141 8.98494 9.63885Z" fill="#F5F5F5"/>
<path d="M8.98494 11.5547L9.10706 11.921L9.49312 11.9239C9.54312 11.9243 9.56381 11.9881 9.52362 12.0178L9.21306 12.2471L9.32956 12.6152C9.34469 12.6628 9.29037 12.7023 9.24969 12.6732L8.93563 12.4487L8.62156 12.6732C8.58088 12.7023 8.52669 12.6628 8.54169 12.6152L8.65819 12.2471L8.34763 12.0178C8.30744 11.988 8.32813 11.9243 8.37813 11.9239L8.76419 11.921L8.88631 11.5547C8.90213 11.5073 8.96913 11.5073 8.98494 11.5547Z" fill="#F5F5F5"/>
<path d="M8.98494 13.4706L9.10706 13.8368L9.49312 13.8398C9.54312 13.8402 9.56381 13.904 9.52362 13.9337L9.21306 14.163L9.32956 14.5311C9.34469 14.5787 9.29037 14.6182 9.24969 14.5891L8.93563 14.3646L8.62156 14.5891C8.58088 14.6182 8.52669 14.5787 8.54169 14.5311L8.65819 14.163L8.34763 13.9337C8.30744 13.9039 8.32813 13.8402 8.37813 13.8398L8.76419 13.8368L8.88631 13.4706C8.90213 13.4232 8.96913 13.4232 8.98494 13.4706Z" fill="#F5F5F5"/>
<path d="M10.4722 6.78362L10.5944 7.14987L10.9804 7.15281C11.0304 7.15325 11.0511 7.217 11.0109 7.24669L10.7004 7.47606L10.8169 7.84412C10.832 7.89175 10.7777 7.93125 10.737 7.90212L10.4229 7.67762L10.1089 7.90212C10.0682 7.93118 10.014 7.89175 10.029 7.84412L10.1455 7.47606L9.83493 7.24669C9.79474 7.21694 9.81543 7.15325 9.86543 7.15281L10.2515 7.14987L10.3736 6.78362C10.3893 6.73619 10.4564 6.73619 10.4722 6.78362Z" fill="#F5F5F5"/>
<path d="M10.4722 8.6995L10.5944 9.06575L10.9804 9.06869C11.0304 9.06913 11.0511 9.13288 11.0109 9.16256L10.7004 9.39194L10.8169 9.76C10.832 9.80762 10.7777 9.84712 10.737 9.818L10.4229 9.5935L10.1089 9.818C10.0682 9.84706 10.014 9.80762 10.029 9.76L10.1455 9.39194L9.83493 9.16256C9.79474 9.13281 9.81543 9.06913 9.86543 9.06869L10.2515 9.06575L10.3736 8.6995C10.3893 8.65213 10.4564 8.65213 10.4722 8.6995Z" fill="#F5F5F5"/>
<path d="M10.4722 10.6154L10.5944 10.9816L10.9804 10.9846C11.0304 10.985 11.0511 11.0487 11.0109 11.0784L10.7004 11.3078L10.8169 11.6759C10.832 11.7235 10.7777 11.763 10.737 11.7339L10.4229 11.5094L10.1089 11.7339C10.0682 11.7629 10.014 11.7235 10.029 11.6759L10.1455 11.3078L9.83493 11.0784C9.79474 11.0487 9.81543 10.985 9.86543 10.9846L10.2515 10.9816L10.3736 10.6154C10.3893 10.568 10.4564 10.568 10.4722 10.6154Z" fill="#F5F5F5"/>
<path d="M10.4722 12.5313L10.5944 12.8976L10.9804 12.9005C11.0304 12.9009 11.0511 12.9647 11.0109 12.9944L10.7004 13.2237L10.8169 13.5918C10.832 13.6394 10.7777 13.6789 10.737 13.6498L10.4229 13.4253L10.1089 13.6498C10.0682 13.6789 10.014 13.6394 10.029 13.5918L10.1455 13.2237L9.83493 12.9944C9.79474 12.9646 9.81543 12.9009 9.86543 12.9005L10.2515 12.8976L10.3736 12.5313C10.3893 12.4839 10.4564 12.4839 10.4722 12.5313Z" fill="#F5F5F5"/>
<path d="M10.4722 14.4472L10.5944 14.8134L10.9804 14.8164C11.0304 14.8168 11.0511 14.8806 11.0109 14.9102L10.7004 15.1396L10.8169 15.5077C10.832 15.5553 10.7777 15.5948 10.737 15.5657L10.4229 15.3412L10.1089 15.5657C10.0682 15.5947 10.014 15.5553 10.029 15.5077L10.1455 15.1396L9.83493 14.9102C9.79474 14.8805 9.81543 14.8168 9.86543 14.8164L10.2515 14.8134L10.3736 14.4472C10.3893 14.3997 10.4564 14.3997 10.4722 14.4472Z" fill="#F5F5F5"/>
<path d="M11.9593 7.72294L12.0814 8.08919L12.4675 8.09213C12.5175 8.09256 12.5382 8.15631 12.498 8.186L12.1874 8.41538L12.3039 8.78344C12.3191 8.83106 12.2647 8.87056 12.2241 8.84144L11.91 8.61694L11.5959 8.84144C11.5552 8.8705 11.5011 8.83106 11.5161 8.78344L11.6326 8.41538L11.322 8.186C11.2818 8.15625 11.3025 8.09256 11.3525 8.09213L11.7386 8.08919L11.8607 7.72294C11.8764 7.67556 11.9436 7.67556 11.9593 7.72294Z" fill="#F5F5F5"/>
<path d="M11.9593 9.63885L12.0814 10.0051L12.4675 10.008C12.5175 10.0085 12.5382 10.0722 12.498 10.1019L12.1874 10.3313L12.3039 10.6993C12.3191 10.747 12.2647 10.7865 12.2241 10.7573L11.91 10.5328L11.5959 10.7573C11.5552 10.7864 11.5011 10.747 11.5161 10.6993L11.6326 10.3313L11.322 10.1019C11.2818 10.0722 11.3025 10.0085 11.3525 10.008L11.7386 10.0051L11.8607 9.63885C11.8764 9.59141 11.9436 9.59141 11.9593 9.63885Z" fill="#F5F5F5"/>
<path d="M11.9593 11.5547L12.0814 11.921L12.4675 11.9239C12.5175 11.9243 12.5382 11.9881 12.498 12.0178L12.1874 12.2471L12.3039 12.6152C12.3191 12.6628 12.2647 12.7023 12.2241 12.6732L11.91 12.4487L11.5959 12.6732C11.5552 12.7023 11.5011 12.6628 11.5161 12.6152L11.6326 12.2471L11.322 12.0178C11.2818 11.988 11.3025 11.9243 11.3525 11.9239L11.7386 11.921L11.8607 11.5547C11.8764 11.5073 11.9436 11.5073 11.9593 11.5547Z" fill="#F5F5F5"/>
<path d="M11.9593 13.4706L12.0814 13.8368L12.4675 13.8398C12.5175 13.8402 12.5382 13.904 12.498 13.9337L12.1874 14.163L12.3039 14.5311C12.3191 14.5787 12.2647 14.6182 12.2241 14.5891L11.91 14.3646L11.5959 14.5891C11.5552 14.6182 11.5011 14.5787 11.5161 14.5311L11.6326 14.163L11.322 13.9337C11.2818 13.9039 11.3025 13.8402 11.3525 13.8398L11.7386 13.8368L11.8607 13.4706C11.8764 13.4232 11.9436 13.4232 11.9593 13.4706Z" fill="#F5F5F5"/>
<path d="M13.4464 6.78362L13.5685 7.14987L13.9545 7.15281C14.0045 7.15325 14.0252 7.217 13.9851 7.24669L13.6745 7.47606L13.791 7.84412C13.8061 7.89175 13.7518 7.93125 13.7111 7.90212L13.3971 7.67762L13.083 7.90212C13.0423 7.93118 12.9881 7.89175 13.0031 7.84412L13.1196 7.47606L12.8091 7.24669C12.7689 7.21694 12.7896 7.15325 12.8396 7.15281L13.2256 7.14987L13.3477 6.78362C13.3635 6.73619 13.4305 6.73619 13.4464 6.78362Z" fill="#F5F5F5"/>
<path d="M13.4464 8.6995L13.5685 9.06575L13.9545 9.06869C14.0045 9.06913 14.0252 9.13288 13.9851 9.16256L13.6745 9.39194L13.791 9.76C13.8061 9.80762 13.7518 9.84712 13.7111 9.818L13.3971 9.5935L13.083 9.818C13.0423 9.84706 12.9881 9.80762 13.0031 9.76L13.1196 9.39194L12.8091 9.16256C12.7689 9.13281 12.7896 9.06913 12.8396 9.06869L13.2256 9.06575L13.3477 8.6995C13.3635 8.65213 13.4305 8.65213 13.4464 8.6995Z" fill="#F5F5F5"/>
<path d="M13.4464 10.6154L13.5685 10.9816L13.9545 10.9846C14.0045 10.985 14.0252 11.0487 13.9851 11.0784L13.6745 11.3078L13.791 11.6759C13.8061 11.7235 13.7518 11.763 13.7111 11.7339L13.3971 11.5094L13.083 11.7339C13.0423 11.7629 12.9881 11.7235 13.0031 11.6759L13.1196 11.3078L12.8091 11.0784C12.7689 11.0487 12.7896 10.985 12.8396 10.9846L13.2256 10.9816L13.3477 10.6154C13.3635 10.568 13.4305 10.568 13.4464 10.6154Z" fill="#F5F5F5"/>
<path d="M13.4464 12.5313L13.5685 12.8976L13.9545 12.9005C14.0045 12.9009 14.0252 12.9647 13.9851 12.9944L13.6745 13.2237L13.791 13.5918C13.8061 13.6394 13.7518 13.6789 13.7111 13.6498L13.3971 13.4253L13.083 13.6498C13.0423 13.6789 12.9881 13.6394 13.0031 13.5918L13.1196 13.2237L12.8091 12.9944C12.7689 12.9646 12.7896 12.9009 12.8396 12.9005L13.2256 12.8976L13.3477 12.5313C13.3635 12.4839 13.4305 12.4839 13.4464 12.5313Z" fill="#F5F5F5"/>
<path d="M13.4464 14.4472L13.5685 14.8134L13.9545 14.8164C14.0045 14.8168 14.0252 14.8806 13.9851 14.9102L13.6745 15.1396L13.791 15.5077C13.8061 15.5553 13.7518 15.5948 13.7111 15.5657L13.3971 15.3412L13.083 15.5657C13.0423 15.5947 12.9881 15.5553 13.0031 15.5077L13.1196 15.1396L12.8091 14.9102C12.7689 14.8805 12.7896 14.8168 12.8396 14.8164L13.2256 14.8134L13.3477 14.4472C13.3635 14.3997 13.4305 14.3997 13.4464 14.4472Z" fill="#F5F5F5"/>
</g>
<defs>
<clipPath id="clip0_544_12289">
<rect width="32" height="32" fill="white"/>
</clipPath>
</defs>
</svg>
